<?xml version="1.0" encoding="utf-8"?>
<!-- Generator: Adobe Illustrator 28.1.0, SVG Export Plug-In . SVG Version: 6.00 Build 0)  -->
<svg version="1.1" id="Layer_1" xmlns="http://www.w3.org/2000/svg" xmlns:xlink="http://www.w3.org/1999/xlink" x="0px" y="0px"
	 viewBox="0 0 200 100" style="enable-background:new 0 0 200 100;" xml:space="preserve">
<g id="g12">
	<g id="g18" transform="translate(558.9328,88.5098)">
		<path id="path20" d="M-384.8-40v3.4h2.4v3.4c0,0.3,0,0.6-0.1,0.9c-0.1,0.6-0.7,1.7-2.4,1.7c-1.7,0-2.3-1.1-2.4-1.7
			c0-0.3-0.1-0.6-0.1-0.9V-44c0-0.4,0-0.8,0.1-1.1c0.1-0.6,0.6-1.7,2.3-1.7c1.8,0,2.3,1.2,2.4,1.7c0.1,0.3,0.1,0.9,0.1,0.9v1.3h5.9
			v-0.8c0,0,0-0.8,0-1.6c-0.4-4.4-4.1-5.8-8.3-5.8c-4.2,0-7.8,1.4-8.3,5.8c0,0.4-0.1,1.1-0.1,1.6v9.9c0,0.4,0,0.8,0.1,1.6
			c0.4,4.3,4.1,5.8,8.3,5.8c4.2,0,7.9-1.5,8.3-5.8c0.1-0.8,0.1-1.1,0.1-1.6V-40H-384.8z M-425.7-50.4h-6v17.5c0,0.3,0,0.6-0.1,0.9
			c-0.1,0.6-0.6,1.7-2.3,1.7c-1.6,0-2.1-1.1-2.2-1.7c-0.1-0.3-0.1-0.6-0.1-0.9v-17.5h-6v16.9c0,0.4,0,1.3,0.1,1.6
			c0.4,4.4,3.9,5.8,8.2,5.8c4.3,0,7.8-1.4,8.2-5.8c0-0.2,0.1-1.1,0.1-1.6L-425.7-50.4z M-480.6-50.4l-3,18.4l-3-18.4h-9.6l-0.5,23.6
			h5.9l0.2-21.8l4.1,21.8h6l4.1-21.8l0.2,21.8h5.9l-0.5-23.6H-480.6z M-516.2-50.4l-4.4,23.6h6.4l3.3-21.8l3.2,21.8h6.3l-4.4-23.6
			H-516.2z M-404.9-31.4l-5.6-19h-8.8v23.3h5.8l-0.3-19.6l6,19.6h8.4v-23.3h-5.8L-404.9-31.4z M-458.5-44.3c-0.1-0.5-0.1-1,0-1.2
			c0.2-0.8,0.7-1.6,2.1-1.6c1.4,0,2.2,0.8,2.2,2.1v1.4h5.8v-1.6c0-5.1-4.6-5.9-7.9-5.9c-4.2,0-7.5,1.4-8.2,5.2c-0.2,1-0.2,2,0.1,3.1
			c1,4.8,9.3,6.2,10.5,9.2c0.2,0.6,0.2,1.3,0,1.7c-0.2,0.8-0.7,1.6-2.3,1.6c-1.5,0-2.4-0.8-2.4-2.1l0-2.3h-6.3v1.8
			c0,5.2,4.1,6.8,8.5,6.8c4.2,0,7.7-1.4,8.3-5.3c0.3-2,0.1-3.3,0-3.8C-448.9-40.1-457.8-41.5-458.5-44.3 M-535.2-44.3
			c-0.1-0.5-0.1-1,0-1.2c0.2-0.8,0.7-1.6,2.2-1.6c1.4,0,2.2,0.9,2.2,2.1v1.5h5.9v-1.7c0-5.1-4.6-5.9-8-5.9c-4.2,0-7.6,1.4-8.2,5.2
			c-0.2,1.1-0.2,2,0,3.2c1,4.8,9.4,6.2,10.6,9.3c0.2,0.6,0.2,1.3,0,1.7c-0.2,0.8-0.7,1.6-2.3,1.6c-1.5,0-2.4-0.9-2.4-2.1l0-2.3h-6.3
			v1.8c0,5.3,4.1,6.9,8.6,6.9c4.3,0,7.8-1.5,8.3-5.4c0.3-2,0.1-3.4,0-3.9C-525.5-40.1-534.5-41.6-535.2-44.3"/>
	</g>
</g>
</svg>
