<?xml version="1.0" encoding="utf-8"?>
<!-- Generator: Adobe Illustrator 28.1.0, SVG Export Plug-In . SVG Version: 6.00 Build 0)  -->
<svg version="1.1" id="Layer_1" xmlns="http://www.w3.org/2000/svg" xmlns:xlink="http://www.w3.org/1999/xlink" x="0px" y="0px"
	 viewBox="0 0 200 100" style="enable-background:new 0 0 200 100;" xml:space="preserve">
<g>
	<path d="M36.6,39.9L27.1,46l9.6,6.1l-9.6,6.1L17.5,52l9.6-6.1l-9.6-6.1l9.6-6.1L36.6,39.9z M27,60.1l9.6-6.1l9.6,6.1l-9.6,6.1
		L27,60.1z M36.6,52l9.6-6.1l-9.6-6.1l9.5-6.1l9.6,6.1L46.2,46l9.6,6.1l-9.6,6.1L36.6,52z"/>
	<path d="M63.2,39.9H71c4.9,0,9,2.9,9,9.4v1.4c0,6.6-3.8,9.5-8.9,9.5h-7.9V39.9z M67.6,43.5v12.9h3.3c2.8,0,4.7-1.8,4.7-5.9v-1.1
		c0-4.1-2-5.9-4.8-5.9C70.7,43.5,67.6,43.5,67.6,43.5z M82.3,43.7h3.5l0.6,3.8c0.7-2.6,2.3-4,5.4-4h1.1v4.4H91
		c-3.5,0-4.4,1.2-4.4,4.7v7.5h-4.3L82.3,43.7L82.3,43.7z M93.6,52.3v-0.5c0-5.5,3.5-8.5,8.3-8.5c4.9,0,8.3,3,8.3,8.5v0.5
		c0,5.4-3.3,8.3-8.3,8.3C96.6,60.5,93.6,57.7,93.6,52.3z M105.9,52.2v-0.4c0-3.1-1.5-4.9-4-4.9c-2.4,0-4,1.7-4,4.9v0.4
		c0,3,1.5,4.6,4,4.6C104.3,56.8,105.9,55.2,105.9,52.2z M112.5,43.7h3.6l0.4,3.1c0.9-2.1,2.7-3.5,5.4-3.5c4.2,0,6.9,3,6.9,8.6v0.5
		c0,5.4-3.1,8.3-6.9,8.3c-2.6,0-4.4-1.2-5.2-3.1v8.3h-4.2L112.5,43.7L112.5,43.7z M124.4,52.2v-0.4c0-3.3-1.7-4.9-3.9-4.9
		c-2.4,0-4,1.8-4,4.9v0.3c0,2.9,1.5,4.7,3.9,4.7C122.9,56.9,124.4,55.3,124.4,52.2z M135.1,57.1l-0.4,3h-3.7V38.2h4.2v8.4
		c0.9-2.1,2.8-3.3,5.3-3.3c3.9,0,6.8,2.8,6.8,8.2V52c0,5.4-2.8,8.6-6.9,8.6C137.7,60.5,136,59.3,135.1,57.1z M143,52v-0.4
		c0-3-1.6-4.7-3.9-4.7c-2.3,0-4,1.9-4,4.7V52c0,3.1,1.6,4.8,3.9,4.8C141.6,56.9,143,55.3,143,52z M149.3,52.3v-0.5
		c0-5.5,3.5-8.5,8.3-8.5c4.9,0,8.3,3,8.3,8.5v0.5c0,5.4-3.4,8.3-8.3,8.3C152.3,60.5,149.3,57.7,149.3,52.3z M161.5,52.2v-0.4
		c0-3.1-1.5-4.9-4-4.9c-2.4,0-4,1.7-4,4.9v0.4c0,3,1.5,4.6,4,4.6C160,56.8,161.5,55.2,161.5,52.2z M171.4,51.6l-5.8-7.9h4.9l3.3,4.9
		l3.4-4.9h4.9l-5.8,7.8l6.2,8.6h-4.8l-3.8-5.4l-3.7,5.4h-5L171.4,51.6z"/>
</g>
</svg>
