<?xml version="1.0" encoding="utf-8"?>
<!-- Generator: Adobe Illustrator 28.1.0, SVG Export Plug-In . SVG Version: 6.00 Build 0)  -->
<svg version="1.1" id="Layer_1" xmlns="http://www.w3.org/2000/svg" xmlns:xlink="http://www.w3.org/1999/xlink" x="0px" y="0px"
	 viewBox="0 0 200 100" style="enable-background:new 0 0 200 100;" xml:space="preserve">
<path d="M162.6,64.3h5.5v-8.9l7.7,8.9h6.7L173.6,54l7.6-8.9h-6.1l-7,8.2V35.3l-5.5,0.7V64.3z M150,44.6c-6.1,0-10.3,4.1-10.3,10
	s4.2,10,10.3,10c6.1,0,10.3-4.1,10.3-10S156.1,44.6,150,44.6L150,44.6z M150,60.1c-2.8,0-4.8-2.2-4.8-5.4c0-3.2,1.9-5.4,4.8-5.4
	c2.8,0,4.8,2.2,4.8,5.4C154.7,57.9,152.8,60.1,150,60.1z M127.7,44.6c-6.1,0-10.3,4.1-10.3,10s4.2,10,10.3,10
	c6.1,0,10.3-4.1,10.3-10S133.8,44.6,127.7,44.6L127.7,44.6z M127.7,60.1c-2.8,0-4.8-2.2-4.8-5.4c0-3.2,1.9-5.4,4.8-5.4
	c2.8,0,4.8,2.2,4.8,5.4C132.4,57.9,130.5,60.1,127.7,60.1z M106.6,44.6c-2.5,0-4.6,1-6,2.8V35.3L95.2,36v28.3h4.9l0.1-3
	c1.3,2.2,3.6,3.4,6.5,3.4c5.2,0,9-4.2,9-10C115.7,48.9,111.9,44.6,106.6,44.6L106.6,44.6z M105.3,60.1c-2.8,0-4.8-2.2-4.8-5.4
	c0-3.2,1.9-5.4,4.8-5.4c2.8,0,4.8,2.2,4.8,5.4C110.1,57.9,108.2,60.1,105.3,60.1z M84.2,60.3c-2.9,0-5-1.4-5.7-3.7H92
	c0.1-0.7,0.2-1.6,0.2-2.1c0-6.1-3.4-9.8-9.2-9.8c-5.8,0-9.9,4.1-9.9,10c0,6,4.2,10,10.5,10c3.3,0,6.4-1.1,8.4-2.9l-2-3.5
	C88.1,59.7,86.2,60.3,84.2,60.3L84.2,60.3z M83,48.9c2.5,0,4.2,1.5,4.2,3.9v0h-8.8C78.9,50.3,80.5,48.9,83,48.9L83,48.9z M64.5,64.7
	c2.8,0,5.6-1.1,7.6-3L70,58.2c-1.5,1.2-3.3,1.8-4.9,1.8c-3,0-5.1-2.1-5.1-5.3c0-3.2,2-5.3,5.1-5.3c1.5,0,3.1,0.5,4.5,1.5l2.2-3.7
	c-1.8-1.6-4.5-2.6-7.2-2.6c-6,0-10.2,4.2-10.2,10C54.3,60.6,58.6,64.7,64.5,64.7z M47.1,45.1l-0.1,3c-1.3-2.2-3.6-3.5-6.5-3.5
	c-5.2,0-9,4.2-9,10c0,5.8,3.8,10,9,10c2.9,0,5.2-1.2,6.5-3.4l0.1,3h4.9V45.1H47.1L47.1,45.1z M41.8,60.1c-2.8,0-4.8-2.2-4.8-5.4
	c0-3.2,1.9-5.4,4.8-5.4c2.8,0,4.8,2.2,4.8,5.4C46.5,57.9,44.6,60.1,41.8,60.1L41.8,60.1z M31,45.2h-4.9v-1.6c0-2.4,1-3.4,3.4-3.4
	c0.8,0,1.4,0,1.7,0.1V36c-0.7-0.2-2.3-0.4-3.3-0.4c-5,0-7.4,2.4-7.4,7.5v2h-3.1v4.6h3.1v14.5h5.5V49.8h4.1L31,45.2z"/>
</svg>
