<?xml version="1.0" encoding="utf-8"?>
<!-- Generator: Adobe Illustrator 28.1.0, SVG Export Plug-In . SVG Version: 6.00 Build 0)  -->
<svg version="1.1" id="Layer_1" xmlns="http://www.w3.org/2000/svg" xmlns:xlink="http://www.w3.org/1999/xlink" x="0px" y="0px"
	 viewBox="0 0 200 100" style="enable-background:new 0 0 200 100;" xml:space="preserve">
<g>
	<g>
		<path d="M32.4,52.3h-11v-2.7h14.2c-0.4-1.2-1.6-2.2-3.7-2.2H21.6c-2.4,0-3.7,0.9-3.7,2.8v2c0,1.7,1.4,2.6,3.5,2.6h11.2v2.9h-15
			c0.4,1.6,1.6,2.4,3.7,2.4h11.2c2.4,0,3.5-0.9,3.5-2.9v-2C36,53.4,34.6,52.4,32.4,52.3z"/>
	</g>
	<g>
		<path d="M55,47.3H41.4v12.7h3.9v-4.9h10c2.8,0,4.3-1,4.3-3.2v-1.4C59.5,48.5,57.8,47.3,55,47.3z M56.2,51.4c0,0.9-0.2,1.4-1.7,1.4
			h-9.3l0-3.3h9.1c1.7,0,1.9,0.5,1.9,1.4L56.2,51.4L56.2,51.4z"/>
	</g>
	<g>
		<polygon points="70.8,46.8 68.5,49.7 72.4,55.1 64.2,55.1 62.2,57.3 74,57.3 76.1,60.1 80.6,60.1 		"/>
	</g>
	<g>
		<path d="M88,49.5h14.4c-0.4-1.5-1.8-2.2-3.9-2.2H87.8c-1.9,0-3.7,0.7-3.7,2.8v7.1c0,2,1.8,2.8,3.7,2.8h10.9c2.5,0,3.4-0.7,3.8-2.4
			H88V49.5L88,49.5z"/>
	</g>
	<g>
		<polygon points="111.6,57.7 111.6,53.8 119.4,53.8 119.4,51.6 107.7,51.6 107.7,60.1 125,60.1 125,57.7 		"/>
		<rect x="108.2" y="47.3" width="17.4" height="2.2"/>
	</g>
	<g>
		<path d="M136.3,47.3h-6.1l7.1,5.2c1-0.7,2.2-1.5,3.3-2.1L136.3,47.3z M145.1,53.9c-1,0.7-2.1,1.5-3.1,2.2l5.4,3.9h6.1L145.1,53.9
			L145.1,53.9z"/>
	</g>
	<g>
		<path d="M182.5,39.9c-33.2,1.9-48.6,16.1-52,19.5l-0.7,0.7h6.1C152.5,43.4,176.4,40.5,182.5,39.9z"/>
	</g>
</g>
</svg>
