<?xml version="1.0" encoding="utf-8"?>
<!-- Generator: Adobe Illustrator 28.1.0, SVG Export Plug-In . SVG Version: 6.00 Build 0)  -->
<svg version="1.1" id="Layer_1" xmlns="http://www.w3.org/2000/svg" xmlns:xlink="http://www.w3.org/1999/xlink" x="0px" y="0px"
	 viewBox="0 0 200 100" style="enable-background:new 0 0 200 100;" xml:space="preserve">
<style type="text/css">
	.st0{fill:#1D1D1B;}
</style>
<g id="Layer_2_00000031187998541644795450000007150012594888323487_">
	<g id="Layer_1-2">
		<path class="st0" d="M52.8,48.5h-3.4V49h0.3c0.3,0,0.6,0,0.8,0.2c0.2,0.2,0.3,0.4,0.3,0.7v4.4c0,0.8-0.3,1.5-0.8,2
			c-0.6,0.5-1.3,0.8-2.1,0.8c-1.9,0-2.6-1.3-2.6-2.5v-5c0-0.1,0-0.2,0.1-0.3c0.1-0.2,0.3-0.2,0.5-0.2l0.6,0v-0.5h-3.9V49l0.5,0
			c0.3,0,0.5,0.1,0.6,0.2c0.1,0.1,0.1,0.2,0.1,0.3v5.1c0,0.8,0.3,1.6,0.9,2.2c0.7,0.7,1.8,1.1,3.1,1.1c2.2,0,3.9-1.5,3.9-3.6V50
			c0-0.3,0.1-0.5,0.3-0.7c0.2-0.2,0.5-0.3,0.8-0.3h0.2L52.8,48.5L52.8,48.5z"/>
		<path class="st0" d="M64.7,48.5h-3.5V49h0.4c0.5,0,0.8,0.1,1,0.4c0.1,0.2,0.2,0.4,0.1,0.6v5.4l-6.4-6.9h-2.7V49h0.1
			c0.3,0,0.7,0.1,1,0.2c0.3,0.1,0.5,0.3,0.6,0.6v6.3c0,0.3,0,0.5-0.2,0.7c-0.2,0.2-0.5,0.4-0.8,0.4h-0.3v0.5h3.6v-0.5h-0.3
			c-0.4,0-0.8-0.1-1.1-0.5c-0.1-0.2-0.2-0.4-0.2-0.6v-5.9l6.8,7.4h0.6v-7.7c0-0.3,0-0.5,0.2-0.7c0.2-0.2,0.5-0.4,0.8-0.3h0.3
			L64.7,48.5L64.7,48.5z"/>
		<path class="st0" d="M70,48.5h-3.9V49l0.5,0c0.3,0,0.5,0.1,0.6,0.2c0.1,0.1,0.1,0.2,0.1,0.3v7.1c0,0.1,0,0.3-0.1,0.4
			c-0.1,0.1-0.3,0.2-0.5,0.2h-0.1l-0.5,0.1v0.4H70v-0.4l-0.3-0.1l-0.2,0c-0.2,0-0.3,0-0.5-0.1c-0.1-0.1-0.2-0.2-0.2-0.4v-7.1
			c0-0.1,0-0.2,0.1-0.3c0.1-0.2,0.3-0.2,0.5-0.2l0.6,0L70,48.5L70,48.5z"/>
		<path class="st0" d="M81.2,48.5H78V49h0.3c0.2,0,0.4,0,0.6,0.2c0.2,0.2,0.3,0.5,0.2,0.7c0,0-2.3,5.1-2.7,6l-2.2-6.1
			c0-0.1-0.1-0.2-0.1-0.3c0-0.2,0.1-0.3,0.2-0.5c0.1-0.1,0.3-0.2,0.5-0.1l0.3,0v-0.5h-4V49l0.2,0c0.2,0,0.4,0,0.5,0.1
			c0.2,0.2,0.4,0.4,0.5,0.7l3.1,7.9h0.8l3.4-7.7c0.2-0.5,0.3-0.7,0.7-0.9c0.1-0.1,0.3-0.1,0.4-0.1l0.3,0L81.2,48.5L81.2,48.5z"/>
		<path class="st0" d="M88.8,48.5h-6.5V49l0.5,0c0.3,0,0.5,0.1,0.6,0.2c0.1,0.1,0.1,0.2,0.1,0.3v6.9c0,0.2,0,0.4-0.1,0.5
			c-0.1,0.1-0.3,0.2-0.5,0.2l-0.5,0.1v0.4h7.1l0.5-2.5l-0.5,0l-0.2,0.6c0,0.1-0.3,0.7-0.8,1c-0.3,0.2-0.6,0.3-1,0.2h-1.3
			c-0.3,0-0.6-0.1-0.8-0.2c-0.3-0.2-0.3-0.5-0.3-0.8v-2.9h1.2c0.3,0,0.7,0.1,1,0.3c0.2,0.2,0.3,0.4,0.3,0.6l0,0.3H88v-2.9h-0.5
			l0,0.3c0,0.3-0.1,0.5-0.3,0.7c-0.2,0.1-0.5,0.2-0.9,0.2h-1.2v-3.6H87c0.3,0,0.6,0.1,0.9,0.3c0.2,0.2,0.4,0.5,0.4,0.8l0,0.1
			l0.1,0.5l0,0.1h0.5L88.8,48.5L88.8,48.5z"/>
		<path class="st0" d="M91.1,48.5L91.1,48.5L91.1,49l0.5,0c0.3,0,0.5,0.1,0.6,0.2c0.1,0.1,0.1,0.2,0.1,0.3v7.1c0,0.1,0,0.3-0.1,0.4
			c-0.1,0.1-0.3,0.2-0.5,0.2h-0.1l-0.5,0.1v0.4H95v-0.4l-0.3,0c-0.2,0-0.5-0.1-0.7-0.2c-0.1-0.1-0.2-0.2-0.2-0.4v-2.9h1.2l2.3,3.6
			c0.1,0.2,0.3,0.3,0.6,0.4l0.4,0h1.3v-0.3l0,0c-0.2-0.1-0.4-0.2-0.5-0.4c-0.3-0.2-0.5-0.5-0.8-0.8l-2-2.8l0.1,0
			c0.3-0.1,0.6-0.3,0.8-0.5c0.6-0.5,1-1.2,1-1.9c0-0.1,0-0.1,0-0.2c0-0.6-0.2-1.2-0.6-1.6c-0.7-0.7-1.8-0.7-2.7-0.7L91.1,48.5z
			 M94.9,49.1c0.5,0,0.9,0.1,1.2,0.4c0.3,0.3,0.5,1,0.5,1.6c0,0.1,0,0.3,0,0.4c-0.1,0.6-0.3,1.1-0.7,1.4c-0.4,0.3-0.8,0.3-1.4,0.3
			h-0.7v-4.1H94.9z"/>
		<path class="st0" d="M104.3,48.4c-1.3,0-3,0.5-3.3,1.9c-0.2,1.2,0.5,1.9,1.4,2.5l1.7,1.1c0.8,0.6,1.2,1.1,1.2,1.8
			c0.1,0.9-0.6,1.6-1.7,1.7c-1.1,0.1-2-0.7-2.2-1.7l-0.1-0.3h-0.5v2.1l0,0c0.7,0.4,2.4,0.5,2.9,0.4c1.6-0.1,3.2-1,3.2-2.5
			c0,0,0-0.1,0-0.1c0-0.9-0.4-1.5-1.3-2.1l-2.6-1.8c-0.3-0.2-0.5-0.6-0.5-1c0-0.1,0-0.2,0-0.4c0.2-0.6,0.7-1,1.5-1
			c0.8,0,1.5,0.5,1.7,1.2l0.1,0.4v0.1h0.5l0-1.9l0,0C105.6,48.5,104.9,48.4,104.3,48.4z"/>
		<path class="st0" d="M112.2,48.5h-3.9V49l0.5,0c0.3,0,0.5,0.1,0.6,0.2c0.1,0.1,0.1,0.2,0.1,0.3v7.1c0,0.1,0,0.3-0.1,0.4
			c-0.1,0.1-0.3,0.2-0.5,0.2h-0.1l-0.5,0.1v0.4h3.9v-0.4l-0.3-0.1l-0.2,0c-0.2,0-0.3,0-0.5-0.1c-0.1-0.1-0.2-0.2-0.2-0.4v-7.1
			c0-0.1,0-0.2,0.1-0.3c0.1-0.2,0.3-0.2,0.5-0.2l0.6,0L112.2,48.5L112.2,48.5z"/>
		<path class="st0" d="M121.8,48.5h-7.9l-0.4,2.1h0.4l0.2-0.4l0.1-0.2c0.1-0.3,0.3-0.5,0.5-0.7c0.3-0.2,0.7-0.3,1.1-0.3h1.2v7.6
			c0,0.1,0,0.3-0.1,0.4c-0.2,0.1-0.4,0.2-0.6,0.2l-0.5,0.1v0.4h3.9v-0.4l-0.3,0c-0.2,0-0.5-0.1-0.7-0.2c-0.1-0.1-0.2-0.2-0.2-0.4
			v-7.6h1.2c0.4,0,0.7,0,1,0.2c0.2,0.2,0.4,0.4,0.6,0.7l0.1,0.2l0.3,0.5h0.5L121.8,48.5L121.8,48.5z"/>
		<path class="st0" d="M132.3,48.5h-3V49h0.4c0.2,0,0.4,0.1,0.6,0.3c0,0.1,0.1,0.2,0.1,0.2c0,0.2-0.1,0.3-0.2,0.4l-2,3.3l-1.8-3.4
			c-0.1-0.1-0.1-0.2-0.1-0.4c0-0.1,0-0.2,0.1-0.2c0.1-0.1,0.2-0.2,0.5-0.2h0.4v-0.5h-3.7V49h0.2c0.2,0,0.4,0.1,0.6,0.2
			c0.2,0.1,0.4,0.3,0.5,0.5c0,0,2.3,4.1,2.4,4.3v2.5c0,0.2,0,0.4-0.2,0.5c-0.2,0.2-0.5,0.3-0.7,0.2H126v0.5h3.9v-0.4l-0.6-0.1
			c-0.2,0-0.4-0.1-0.5-0.2c-0.1-0.1-0.1-0.3-0.1-0.4v-2.2c0-0.1,0-0.3,0.1-0.4c0-0.2,0.1-0.3,0.2-0.4l2.3-3.9
			c0.1-0.2,0.3-0.4,0.5-0.5c0.1-0.1,0.3-0.1,0.4-0.1h0.2L132.3,48.5L132.3,48.5z"/>
		<path class="st0" d="M137.5,53.3c0,2.9,2.6,4.6,5,4.6c2.8,0,5.2-2.3,5.2-4.9c0-2.7-2.1-4.6-5.1-4.6
			C140.2,48.4,137.5,50.4,137.5,53.3z M139.3,53.1c0-2.6,1.2-4.2,3.2-4.2c2.3,0,3.5,2.1,3.5,4.1c0,2-0.6,4.3-3.4,4.3
			C140.7,57.3,139.3,55.1,139.3,53.1z"/>
		<path class="st0" d="M155.5,48.5H149V49l0.5,0c0.3,0,0.5,0.1,0.6,0.2c0.1,0.1,0.1,0.2,0.1,0.3v7.1c0,0.1,0,0.3-0.1,0.4
			c-0.1,0.1-0.3,0.2-0.5,0.2h-0.1l-0.5,0.1v0.4h3.9v-0.4l-0.3-0.1l-0.2,0c-0.2,0-0.3,0-0.5-0.1c-0.1-0.1-0.2-0.2-0.2-0.4v-3.2h1.3
			c0.2,0,0.7,0,1,0.3c0.2,0.2,0.3,0.4,0.3,0.6l0,0.3h0.5v-2.9h-0.5l-0.1,0.3c0,0.3-0.1,0.5-0.3,0.7c-0.1,0.1-0.3,0.2-0.9,0.2h-1.4
			v-3.9h1.9c0.3,0,0.6,0.1,0.9,0.3c0.2,0.2,0.4,0.5,0.4,0.8l0.2,0.6h0.4L155.5,48.5L155.5,48.5z"/>
		<path class="st0" d="M43.9,62.7c-0.8,0.8-1.3,2-1.3,3.2c0.1,1.8,0.7,2.9,2.3,3.9c0.9,0.6,3.4,1.1,5.6,0.4l1.1-0.3V67
			c0-0.2,0-0.3,0.1-0.4c0.1-0.1,0.3-0.2,0.5-0.2h0.1l0.5-0.1v-0.4h-4.2v0.5l0.5,0l0.2,0c0.3,0,0.6,0,0.7,0.2
			c0.1,0.2,0.1,0.3,0.1,0.5v1.1c0,0.6-0.1,1-0.2,1.2c-0.3,0.4-0.8,0.5-1.6,0.5c-2.5-0.1-3.7-1.4-3.9-4.4c-0.1-1.2,0.3-2.3,1-3
			s1.7-1,3-1c1.5,0.1,2.4,0.6,2.6,1.6l0.1,0.5h0.5V62c0-0.1,0-0.3-0.1-0.4c-0.1-0.1-0.2-0.2-0.3-0.2l-0.3-0.1
			C49.9,61.1,49,61,48.1,61C46.5,61,45,61.6,43.9,62.7z"/>
		<path class="st0" d="M57.7,61.1h-3.9v0.5l0.5,0c0.3,0,0.5,0.1,0.6,0.2c0.1,0.1,0.1,0.2,0.1,0.3v6.7c0,0.4,0,0.7-0.1,0.7
			c-0.2,0.1-0.4,0.2-0.6,0.2l-0.5,0.1v0.4H61l0.4-2.5l-0.5,0l-0.2,0.6c-0.2,0.4-0.4,0.8-0.8,1c-0.4,0.2-0.7,0.3-1.2,0.3h-1
			c-0.3,0-0.6-0.1-0.9-0.2c-0.2-0.2-0.2-0.3-0.2-0.7v-6.7c0-0.1,0-0.2,0.1-0.3c0.1-0.2,0.3-0.2,0.5-0.2l0.6,0L57.7,61.1L57.7,61.1z"
			/>
		<path class="st0" d="M62.8,65.9c0,2.9,2.6,4.6,5,4.6c2.8,0,5.2-2.3,5.2-4.9c0-2.7-2.1-4.6-5.1-4.6C65.5,61,62.8,63,62.8,65.9z
			 M64.6,65.8c0-2.6,1.2-4.2,3.2-4.2c2.3,0,3.5,2.1,3.5,4.1c0,2-0.6,4.3-3.4,4.3C66,69.9,64.6,67.7,64.6,65.8L64.6,65.8z"/>
		<path class="st0" d="M84.6,61.1h-3.4v0.5h0.3c0.3,0,0.6,0,0.8,0.2c0.2,0.2,0.3,0.5,0.3,0.7v4.4c0,0.8-0.3,1.5-0.8,2
			c-0.6,0.5-1.3,0.8-2.1,0.8c-1.9,0-2.6-1.3-2.6-2.5v-5c0-0.1,0-0.2,0.1-0.3c0.1-0.2,0.3-0.2,0.5-0.2l0.6,0v-0.5h-3.9v0.5l0.5,0
			c0.3,0,0.5,0.1,0.6,0.2c0.1,0.1,0.1,0.2,0.1,0.3v5.1c0,0.8,0.3,1.6,0.9,2.2c0.7,0.7,1.8,1.1,3.1,1.1c2.2,0,3.9-1.5,3.9-3.6v-4.3
			c0-0.3,0.1-0.5,0.2-0.7c0.2-0.2,0.5-0.3,0.8-0.3h0.2L84.6,61.1L84.6,61.1z"/>
		<path class="st0" d="M85.9,66c0,2.8,2.1,4.5,5.5,4.5c1.1,0,2.2-0.2,3.2-0.6l0,0l0.5-2h-0.5l-0.2,0.4c-0.1,0.4-0.4,0.7-0.7,0.9
			c-0.6,0.5-1.4,0.7-2.1,0.7c-2.5,0-3.9-1.5-3.9-4c0-1.3,0.4-4.4,3.7-4.4c1.5,0,2.5,0.6,2.7,1.6l0.1,0.5h0.5v-2l0,0
			c-1-0.6-2.6-0.7-3.3-0.7C88.4,61,85.9,63.2,85.9,66z"/>
		<path class="st0" d="M102.8,61.1h-6.5v0.5l0.5,0c0.3,0,0.5,0.1,0.6,0.2c0.1,0.1,0.1,0.2,0.1,0.3v6.9c0,0.2,0,0.4-0.1,0.5
			c-0.1,0.1-0.3,0.2-0.6,0.2l-0.5,0.1v0.4h7.1l0.5-2.5l-0.5,0l-0.2,0.6c0,0.1-0.3,0.7-0.8,1c-0.3,0.2-0.6,0.3-1,0.2h-1.3
			c-0.3,0-0.6-0.1-0.8-0.2C99,69.3,99,69.1,99,68.7v-2.9h1.2c0.3,0,0.7,0.1,1,0.3c0.2,0.2,0.3,0.4,0.3,0.6l0,0.3h0.5v-2.9h-0.5
			l0,0.3c0,0.3-0.1,0.5-0.3,0.7c-0.2,0.1-0.5,0.2-0.9,0.2H99v-3.6h1.9c0.3,0,0.6,0.1,0.9,0.3c0.2,0.2,0.4,0.5,0.4,0.7l0,0.1l0.1,0.5
			l0,0.1h0.5L102.8,61.1L102.8,61.1z"/>
		<path class="st0" d="M108.6,61c-1.3,0-3,0.5-3.3,1.9c-0.2,1.2,0.5,1.9,1.4,2.5l1.7,1.1c0.8,0.6,1.2,1.1,1.2,1.8
			c0.1,0.9-0.6,1.6-1.7,1.7c-1.1,0.1-2-0.7-2.2-1.7l-0.1-0.3h-0.5v2.1l0,0c0.7,0.4,2.4,0.4,2.9,0.4c1.6-0.1,3.2-1,3.2-2.5
			c0,0,0-0.1,0-0.1c0-0.9-0.4-1.5-1.3-2.1l-2.6-1.8c-0.3-0.2-0.5-0.6-0.5-1c0-0.1,0-0.2,0.1-0.4c0.2-0.6,0.7-1,1.5-1
			c0.8,0,1.5,0.5,1.7,1.2l0.1,0.4l0,0.1h0.5l0-1.9l0,0C109.9,61.1,109.2,61,108.6,61z"/>
		<path class="st0" d="M120.8,61.1h-7.9l-0.4,2.1h0.4l0.2-0.4l0.1-0.2c0.1-0.3,0.3-0.5,0.5-0.7c0.3-0.2,0.7-0.3,1.1-0.3h1.2v7.6
			c0,0.1,0,0.3-0.1,0.4c-0.2,0.1-0.4,0.2-0.6,0.2l-0.5,0.1v0.4h3.9v-0.4l-0.3,0c-0.2,0-0.5-0.1-0.7-0.2c-0.1-0.1-0.2-0.2-0.2-0.4
			v-7.6h1.2c0.4,0,0.7,0,1,0.2c0.2,0.2,0.4,0.4,0.6,0.6l0.1,0.2l0.3,0.5h0.5L120.8,61.1L120.8,61.1z"/>
		<path class="st0" d="M128.9,61.1h-6.5v0.5l0.5,0c0.3,0,0.5,0.1,0.6,0.2c0.1,0.1,0.1,0.2,0.1,0.3v6.9c0,0.2,0,0.4-0.1,0.5
			c-0.1,0.1-0.3,0.2-0.5,0.2l-0.5,0.1v0.4h7.1l0.5-2.5l-0.5,0l-0.2,0.6c0,0.1-0.3,0.7-0.8,1c-0.3,0.2-0.6,0.3-1,0.2h-1.3
			c-0.3,0-0.6-0.1-0.8-0.2c-0.3-0.2-0.3-0.5-0.3-0.8v-2.9h1.2c0.3,0,0.7,0.1,1,0.3c0.2,0.2,0.3,0.4,0.3,0.6l0,0.3h0.5v-2.9h-0.5
			l0,0.3c0,0.3-0.1,0.5-0.3,0.7c-0.2,0.1-0.5,0.2-0.9,0.2h-1.2v-3.6h1.9c0.3,0,0.6,0.1,0.9,0.3c0.2,0.2,0.4,0.5,0.4,0.8l0,0.1
			l0.1,0.5l0,0.1h0.5L128.9,61.1L128.9,61.1z"/>
		<path class="st0" d="M131.2,61.1L131.2,61.1l-0.1,0.5l0.5,0c0.3,0,0.5,0.1,0.6,0.2c0.1,0.1,0.1,0.2,0.1,0.3v7.1
			c0,0.1,0,0.3-0.1,0.4c-0.1,0.1-0.3,0.2-0.5,0.2h-0.1l-0.5,0.1v0.4h3.9v-0.4l-0.3,0c-0.2,0-0.5-0.1-0.7-0.2
			c-0.1-0.1-0.2-0.2-0.2-0.4v-2.9h1.2c0,0.1,2.3,3.6,2.3,3.6c0.1,0.2,0.3,0.3,0.6,0.4l0.4,0h1.3v-0.3l0,0c-0.2-0.1-0.4-0.2-0.5-0.4
			c-0.3-0.2-0.5-0.5-0.8-0.8l-2-2.8l0.1,0c0.3-0.1,0.6-0.3,0.8-0.5c0.6-0.5,1-1.2,1-1.9c0-0.1,0-0.1,0-0.2c0-0.6-0.2-1.2-0.6-1.6
			c-0.7-0.7-1.8-0.7-2.8-0.7H131.2z M135,61.7c0.5,0,0.9,0.1,1.2,0.4c0.3,0.3,0.5,1,0.5,1.6c0,0.1,0,0.3,0,0.4
			c-0.1,0.6-0.3,1.1-0.7,1.4c-0.4,0.3-0.8,0.3-1.4,0.3h-0.7v-4.1L135,61.7z"/>
		<path class="st0" d="M144.4,61c-1.3,0-3,0.5-3.3,1.9c-0.2,1.2,0.5,1.9,1.4,2.5l1.7,1.1c0.8,0.6,1.2,1.1,1.2,1.8
			c0.1,0.9-0.6,1.6-1.7,1.7c-1.1,0.1-2-0.6-2.2-1.7l-0.1-0.3h-0.5v2.1l0,0c0.7,0.4,2.4,0.4,2.9,0.4c1.6-0.1,3.2-1,3.2-2.5
			c0,0,0-0.1,0-0.1c0-0.9-0.4-1.5-1.3-2.1l-2.6-1.8c-0.3-0.2-0.5-0.6-0.5-1c0-0.1,0-0.2,0.1-0.4c0.2-0.6,0.7-1,1.5-1
			c0.8,0,1.5,0.5,1.7,1.2l0.1,0.4l0,0.1h0.5l0-1.9l0,0C145.7,61.1,145,61,144.4,61z"/>
		<path class="st0" d="M158.7,61.1h-3.9v0.5l0.6,0c0.2,0,0.4,0.1,0.5,0.2c0.1,0.1,0.1,0.2,0.1,0.3V65h-4.9v-2.8c0-0.1,0-0.2,0.1-0.3
			c0.1-0.2,0.3-0.2,0.5-0.2l0.6,0v-0.5h-4v0.5l0.5,0c0.3,0,0.5,0.1,0.6,0.2c0.1,0.1,0.1,0.2,0.1,0.3v7.1c0,0.1,0,0.3-0.1,0.4
			c-0.1,0.1-0.3,0.2-0.5,0.2h-0.1l-0.5,0.1v0.4h3.9v-0.4l-0.4,0c-0.2,0-0.5-0.1-0.7-0.2c-0.1-0.1-0.2-0.2-0.2-0.4v-3.6h4.9v3.6
			c0,0.2,0,0.3-0.2,0.4c-0.1,0.1-0.3,0.1-0.5,0.1l-0.2,0l-0.4,0.1v0.4h3.9v-0.4l-0.5-0.1h-0.1c-0.2,0-0.4-0.1-0.5-0.2
			c-0.1-0.1-0.1-0.2-0.1-0.4v-7.1c0-0.1,0-0.2,0.1-0.3c0.1-0.2,0.4-0.2,0.6-0.2l0.4,0h0.1L158.7,61.1L158.7,61.1z"/>
		<path class="st0" d="M163.9,61.1h-3.9v0.5l0.5,0c0.3,0,0.5,0.1,0.6,0.2c0.1,0.1,0.1,0.2,0.1,0.3v7.1c0,0.1,0,0.3-0.1,0.4
			c-0.1,0.1-0.3,0.2-0.5,0.2h-0.1l-0.5,0.1v0.4h3.9v-0.4l-0.3-0.1l-0.2,0c-0.2,0-0.3,0-0.5-0.1c-0.1-0.1-0.2-0.2-0.2-0.4v-7.1
			c0-0.1,0-0.2,0.1-0.3c0.1-0.2,0.3-0.2,0.5-0.2l0.6,0L163.9,61.1L163.9,61.1z"/>
		<path class="st0" d="M165.3,61.1L165.3,61.1l-0.1,0.5l0.5,0c0.3,0,0.5,0.1,0.6,0.2c0.1,0.1,0.1,0.2,0.1,0.3v7.1
			c0,0.1,0,0.3-0.1,0.4c-0.1,0.1-0.3,0.2-0.5,0.2h-0.1l-0.5,0.1v0.4h3.9v-0.4l-0.3,0c-0.2,0-0.5-0.1-0.7-0.2
			c-0.1-0.1-0.2-0.2-0.2-0.4v-2.9h1.2l2.3,3.6c0.1,0.2,0.3,0.3,0.6,0.4l0.4,0h1.3v-0.3l0,0c-0.2-0.1-0.4-0.2-0.5-0.4
			c-0.3-0.2-0.5-0.5-0.8-0.8l-2-2.8l0.1,0c0.3-0.1,0.6-0.3,0.8-0.5c0.6-0.5,1-1.2,1-1.9c0-0.1,0-0.1,0-0.2c0-0.6-0.2-1.2-0.6-1.6
			c-0.7-0.7-1.8-0.7-2.7-0.7H165.3z M169,61.7c0.5,0,0.9,0.1,1.2,0.4c0.3,0.3,0.5,1,0.5,1.6c0,0.1,0,0.3,0,0.4
			c-0.1,0.6-0.3,1.1-0.7,1.4c-0.4,0.3-0.8,0.3-1.4,0.3h-0.7v-4.1L169,61.7z"/>
		<path class="st0" d="M181.4,61.1h-6.5v0.5l0.5,0c0.3,0,0.5,0.1,0.6,0.2c0.1,0.1,0.1,0.2,0.1,0.3v6.9c0,0.2,0,0.4-0.1,0.5
			c-0.1,0.1-0.3,0.2-0.5,0.2l-0.5,0.1v0.4h7.1l0.5-2.5l-0.5,0l-0.2,0.6c0,0.1-0.3,0.7-0.8,1c-0.3,0.2-0.6,0.3-1,0.2h-1.3
			c-0.3,0-0.6-0.1-0.8-0.2c-0.3-0.2-0.3-0.5-0.3-0.8v-2.9h1.2c0.3,0,0.7,0.1,1,0.3c0.2,0.2,0.3,0.4,0.3,0.6l0,0.3h0.5v-2.9h-0.5
			l0,0.3c0,0.3-0.1,0.5-0.3,0.7c-0.2,0.1-0.5,0.2-0.9,0.2h-1.2v-3.6h1.9c0.3,0,0.6,0.1,0.9,0.3c0.2,0.2,0.4,0.5,0.4,0.7l0,0.1
			l0.1,0.6h0.5L181.4,61.1L181.4,61.1z"/>
		<polygon class="st0" points="29.1,38 40.7,46.8 40.7,37.9 29.1,29.4 17.5,37.9 17.5,46.8 		"/>
	</g>
</g>
</svg>
