<?xml version="1.0" encoding="utf-8"?>
<!-- Generator: Adobe Illustrator 28.1.0, SVG Export Plug-In . SVG Version: 6.00 Build 0)  -->
<svg version="1.1" id="Layer_1" xmlns="http://www.w3.org/2000/svg" xmlns:xlink="http://www.w3.org/1999/xlink" x="0px" y="0px"
	 viewBox="0 0 200 100" style="enable-background:new 0 0 200 100;" xml:space="preserve">
<style type="text/css">
	.st0{filter:url(#Adobe_OpacityMaskFilter);}
	.st1{fill-rule:evenodd;clip-rule:evenodd;fill:#FFFFFF;}
	.st2{mask:url(#b_00000178173377745966348890000004756931709953176969_);}
	.st3{filter:url(#Adobe_OpacityMaskFilter_00000162331232252788842350000007612701304062592912_);}
	.st4{mask:url(#d_00000130613169855543350160000001896880159780771223_);}
	.st5{filter:url(#Adobe_OpacityMaskFilter_00000150821024326819222050000002122730012425779347_);}
	.st6{mask:url(#f_00000132073684804948107810000017432245075054325411_);}
</style>
<g>
	<path d="M139.9,62.2c-5.7,0-9.2-3.3-9.2-8.6c0-5.5,3.3-8.9,8.5-8.9h0.4c0.7,0,1.6,0,2.8,0.2v-6.6h3.7v23.3
		C146.2,61.6,142.7,62.2,139.9,62.2 M139.9,47.7c-3.6,0-5.3,1.9-5.3,5.9c0,3.6,2.1,5.8,5.5,5.8c0.6,0,1.4,0,2.4-0.1V47.9
		C141.5,47.7,140.6,47.7,139.9,47.7 M89.3,61.7l-10-17.4l0,17.4h-3.5V39.6h4.9l10,17.3l0-17.3h3.5v22.1H89.3z M121.1,62
		c-1.7,0-3.4-0.2-5.5-0.6l-0.2,0v-3.1l0.3,0.1c1.8,0.4,3.4,0.7,5,0.7c1.3,0,4.3-0.2,4.3-2.1c0-1.6-2.1-2-3.7-2.3l-0.1,0
		c-0.3-0.1-0.6-0.1-0.8-0.2c-2.4-0.6-5-1.6-5-4.8c0-3.2,2.5-5,6.9-5c2.1,0,3.6,0.2,4.9,0.4l0.6,0.1v3l-0.3-0.1
		c-1.4-0.3-3-0.5-4.6-0.5c-1.7,0-3.8,0.3-3.8,1.9c0,1.3,1.7,1.7,3.7,2.1c2.7,0.6,6.1,1.3,6.1,5.1C128.7,60.1,126,62,121.1,62
		 M156.5,62c-3.8,0-7.4-0.7-7.4-5.6c0-5.3,5.5-5.3,8.8-5.3c0.3,0,1.9,0.1,2.3,0.1c0-3,0-3.7-4.4-3.7c-1.7,0-3.6,0.3-5.3,0.6
		l-0.3,0.1v-2.9l0.2,0c1.9-0.4,3.8-0.6,5.7-0.6c4.2,0,7.7,0.4,7.7,5.6v11.3l-0.3,0C160.8,62,158.5,62,156.5,62 M157.8,53.8
		c-3.2,0-5.1,0.5-5.1,2.8c0,2.7,2.5,2.9,4.8,2.9c0.9,0,2.4-0.1,2.9-0.1v-5.4C159.8,53.9,158.1,53.8,157.8,53.8 M104.7,62
		c-3.8,0-7.4-0.7-7.4-5.6c0-5.3,5.5-5.3,8.8-5.3c0.3,0,1.9,0.1,2.3,0.1c0-3,0-3.7-4.4-3.7c-1.7,0-3.6,0.3-5.3,0.6l-0.3,0.1v-2.9
		l0.2,0c1.9-0.4,3.8-0.6,5.7-0.6c4.2,0,7.7,0.4,7.7,5.6v11.3l-0.3,0C108.9,62,106.6,62,104.7,62 M106,53.8c-3.2,0-5.1,0.5-5.1,2.8
		c0,2.7,2.5,2.9,4.8,2.9c0.9,0,2.5-0.1,2.9-0.1v-5.4C107.9,53.9,106.2,53.8,106,53.8"/>
	<g transform="translate(139 16)">
		<defs>
			<filter id="Adobe_OpacityMaskFilter" filterUnits="userSpaceOnUse" x="28" y="28.7" width="15.5" height="24.5">
				<feColorMatrix  type="matrix" values="1 0 0 0 0  0 1 0 0 0  0 0 1 0 0  0 0 0 1 0"/>
			</filter>
		</defs>
		
			<mask maskUnits="userSpaceOnUse" x="28" y="28.7" width="15.5" height="24.5" id="b_00000178173377745966348890000004756931709953176969_">
			<g class="st0">
				<path id="a_00000174590849499385261790000014202319921119667356_" class="st1" d="M27.4,27.7h16.1v25.7H27.4V27.7z"/>
			</g>
		</mask>
		<path class="st2" d="M39.7,53.2V46c-1.4,0.2-2.2,0.2-2.8,0.2c-1.5,0-3.1-0.3-4.4-0.8c-2.8-1.2-4.5-4.2-4.5-8
			c0-1.9,0.5-5.4,3.6-7.3c1.6-0.9,3.4-1.3,6.2-1.3c1,0,2.3,0.1,3.6,0.1l2.1,0.1v22.5C43.5,51.5,39.7,53.2,39.7,53.2z M37.5,31.6
			c-3.8,0-5.7,1.9-5.7,5.7c0,4.9,2.8,5.9,5.2,5.9c0.6,0,1.2,0,2.7-0.2V31.8C38.6,31.7,38.1,31.6,37.5,31.6L37.5,31.6z"/>
	</g>
	<g transform="translate(25)">
		<defs>
			
				<filter id="Adobe_OpacityMaskFilter_00000106847855588594688750000001170273291078452135_" filterUnits="userSpaceOnUse" x="20.1" y="26.6" width="27.4" height="35.1">
				<feColorMatrix  type="matrix" values="1 0 0 0 0  0 1 0 0 0  0 0 1 0 0  0 0 0 1 0"/>
			</filter>
		</defs>
		
			<mask maskUnits="userSpaceOnUse" x="20.1" y="26.6" width="27.4" height="35.1" id="d_00000130613169855543350160000001896880159780771223_">
			<g style="filter:url(#Adobe_OpacityMaskFilter_00000106847855588594688750000001170273291078452135_);">
				<path id="c_00000034060558370211509720000004223798886999241106_" class="st1" d="M19.3,26.6h28.9v35.3H19.3V26.6z"/>
			</g>
		</mask>
		<path class="st4" d="M34.3,26.6L22.1,60.2c-0.3,0.8-1.1,1.4-2,1.5v0H33c1,0,1.9-0.6,2.2-1.5l12.2-33.6H34.3z"/>
	</g>
	<path d="M44,61.2c0.7,0,1.4-0.4,1.8-0.9c0-0.1,0.2-0.3,0.3-0.5l4.5-12.3L48,40.2c-0.5-1.1-1.8-1.7-2.9-1.2c-0.4,0.2-0.7,0.4-1,0.8
		c0,0.1-0.2,0.3-0.3,0.5l-4.5,12.3l2.6,7.2C42.4,60.7,43.2,61.2,44,61.2"/>
	<g transform="translate(-1 10)">
		<defs>
			
				<filter id="Adobe_OpacityMaskFilter_00000174586147442436310890000015964375047775039910_" filterUnits="userSpaceOnUse" x="18.5" y="28.3" width="27.5" height="35.1">
				<feColorMatrix  type="matrix" values="1 0 0 0 0  0 1 0 0 0  0 0 1 0 0  0 0 0 1 0"/>
			</filter>
		</defs>
		
			<mask maskUnits="userSpaceOnUse" x="18.5" y="28.3" width="27.5" height="35.1" id="f_00000132073684804948107810000017432245075054325411_">
			<g style="filter:url(#Adobe_OpacityMaskFilter_00000174586147442436310890000015964375047775039910_);">
				<path id="e_00000094584562581500902420000004417869486385752233_" class="st1" d="M17.4,27.2h28.9v36.2H17.4V27.2z"/>
			</g>
		</mask>
		<path class="st6" d="M46,28.3H32.9c-1,0-1.9,0.6-2.2,1.5L18.5,63.4h13.2l12.2-33.6C44.2,29,45.1,28.3,46,28.3L46,28.3z"/>
	</g>
</g>
</svg>
