<?xml version="1.0" encoding="utf-8"?>
<!-- Generator: Adobe Illustrator 28.1.0, SVG Export Plug-In . SVG Version: 6.00 Build 0)  -->
<svg version="1.1" id="Layer_1" xmlns="http://www.w3.org/2000/svg" xmlns:xlink="http://www.w3.org/1999/xlink" x="0px" y="0px"
	 viewBox="0 0 200 100" style="enable-background:new 0 0 200 100;" xml:space="preserve">
<g>
	<path d="M80.5,92.3c1.3,0,2.3-0.6,2.3-1.9l0,0c0-1-0.6-1.5-1.9-1.8c-1-0.3-1.3-0.4-1.3-0.8l0,0c0-0.3,0.3-0.5,0.8-0.5
		s1,0.3,1.5,0.6l0.6-1c-0.6-0.5-1.4-0.8-2.3-0.8c-1.3,0-2.2,0.8-2.2,1.8l0,0c0,1.3,0.8,1.5,2,1.9c1,0.3,1.3,0.4,1.3,0.8l0,0
		c0,0.4-0.4,0.6-0.9,0.6c-0.6,0-1.3-0.3-1.8-0.8l-0.8,0.9C78.5,92,79.6,92.3,80.5,92.3 M83.6,87.1H85v-1.1h-1.4V87.1z M83.6,92.1
		h1.3v-4.7h-1.3V92.1z M86.2,92.1h1.3v-2.7c0-0.6,0.4-0.9,0.9-0.9c0.5,0,0.8,0.4,0.8,0.9v2.7h1.3v-3c0-1-0.6-1.8-1.5-1.8
		c-0.6,0-1,0.4-1.4,0.8v-0.6h-1.3V92.1z M93.7,92.3c0.9,0,1.4-0.4,1.9-0.9l-0.8-0.8c-0.4,0.3-0.6,0.5-1,0.5c-0.8,0-1.1-0.6-1.1-1.3
		l0,0c0-0.6,0.5-1.3,1.1-1.3c0.5,0,0.8,0.3,1,0.5l0.8-0.9c-0.4-0.5-1-0.8-1.9-0.8c-1.4,0-2.4,1.1-2.4,2.4l0,0
		C91.2,91.2,92.3,92.3,93.7,92.3 M98.5,92.3c0.9,0,1.5-0.4,1.9-0.9l-0.8-0.6c-0.4,0.4-0.6,0.5-1.1,0.5c-0.6,0-1-0.3-1.1-0.9h3.3
		c0-0.1,0-0.3,0-0.4c0-1.3-0.8-2.5-2.3-2.5c-1.4,0-2.3,1.1-2.3,2.4l0,0C96.1,91.4,97.1,92.3,98.5,92.3 M97.3,89.5c0.1-0.6,0.5-1,1-1
		c0.5,0,0.9,0.4,1,1H97.3z M104.1,92.1h1.3V86h-0.9l-1.6,0.5l0.3,1.1l1-0.3V92.1z M108.9,92.3c1.4,0,2.4-0.6,2.4-1.8l0,0
		c0-0.8-0.4-1.1-1-1.4c0.5-0.3,0.8-0.6,0.8-1.3l0,0c0-0.9-0.9-1.6-2.2-1.6s-2.2,0.8-2.2,1.6l0,0c0,0.6,0.3,1,0.8,1.3
		c-0.6,0.3-1,0.8-1,1.5l0,0C106.5,91.6,107.5,92.3,108.9,92.3 M108.9,88.6c-0.5,0-0.9-0.4-0.9-0.8l0,0c0-0.4,0.4-0.8,0.9-0.8
		s0.9,0.4,0.9,0.8l0,0C109.8,88.3,109.4,88.6,108.9,88.6 M108.9,91.1c-0.6,0-1-0.4-1-0.8l0,0c0-0.5,0.4-0.8,1-0.8s1,0.3,1,0.8l0,0
		C109.9,90.9,109.5,91.1,108.9,91.1 M114.1,92.3c1.8,0,2.7-1.4,2.7-3.3l0,0c0-1.1-0.3-1.9-0.8-2.3c-0.5-0.5-0.9-0.6-1.8-0.6
		c-1.4,0-2.3,0.9-2.3,2.2l0,0c0,1.3,0.9,2,2.2,2c0.5,0,0.9-0.1,1.3-0.4c-0.1,0.8-0.5,1.4-1.3,1.4c-0.5,0-0.9-0.1-1.3-0.5l-0.8,1
		C112.7,92,113.2,92.3,114.1,92.3 M114.3,89c-0.6,0-1-0.4-1-0.9l0,0c0-0.5,0.4-0.9,1-0.9c0.6,0,1,0.4,1,0.9l0,0
		C115.5,88.6,115,89,114.3,89 M119.8,92.3c1.8,0,2.7-1.4,2.7-3.3l0,0c0-1.1-0.3-1.9-0.8-2.3c-0.5-0.5-0.9-0.6-1.8-0.6
		c-1.4,0-2.3,0.9-2.3,2.2l0,0c0,1.3,0.9,2,2.2,2c0.5,0,0.9-0.1,1.3-0.4c-0.1,0.8-0.5,1.4-1.3,1.4c-0.5,0-0.9-0.1-1.3-0.5l-0.8,1
		C118.3,92,118.9,92.3,119.8,92.3 M120.1,89c-0.6,0-1-0.4-1-0.9l0,0c0-0.5,0.4-0.9,1-0.9s1,0.4,1,0.9l0,0
		C121.1,88.6,120.7,89,120.1,89"/>
	<path d="M103.6,54.9c0,1.9-1.5,3.4-3.4,3.4s-3.4-1.5-3.4-3.4s1.5-3.4,3.4-3.4C102,51.4,103.6,53,103.6,54.9 M176.5,68.8
		c-0.3-0.1-0.4-0.1-0.6-0.3c-1.9-0.6-3-1-3-1.9v-0.1c0-0.8,0.9-1.3,1.9-1.3c1.3,0,2.5,0.4,4.4,1.4l0,0h0.1c0.1,0,0.1,0,0.3-0.1
		l2-3.6v-0.1c0-0.1,0-0.1-0.1-0.3c-2.2-1.1-4.2-1.8-6.6-1.8c-4.6,0-7.6,2.3-7.6,6v0.1c0,3.7,2.9,5.1,6.1,6c0.3,0.1,0.5,0.1,0.8,0.3
		c2,0.6,2.8,1,2.8,1.9v0.1c-0.1,0.8-0.8,1.1-2,1.1c-1.9,0-3.6-0.6-5.7-2l0,0H169c-0.1,0-0.1,0-0.3,0.1l-2.2,3.4v0.1
		c0,0.1,0,0.1,0.1,0.3c2.5,1.8,4.9,2.8,7.7,2.8c5.1,0,8-2.2,8-6.1v-0.1C182.6,71.3,179.6,69.8,176.5,68.8 M121.3,74.7L121.3,74.7
		c0,3.9-3,6.2-8,6.2c-2.9,0-5.2-1-7.7-2.8c-0.1,0-0.1-0.1-0.1-0.3v-0.1l2.2-3.4c0-0.1,0.1-0.1,0.3-0.1h0.1l0,0c2.2,1.4,3.7,2,5.7,2
		c1.3,0,2-0.4,2-1.1V75c0-0.9-0.9-1.4-2.8-1.9c-0.3-0.1-0.5-0.1-0.8-0.3c-3.3-0.9-6.1-2.3-6.1-6l0,0c0-3.7,2.9-6,7.6-6
		c2.3,0,4.4,0.6,6.6,1.8c0.1,0,0.1,0.1,0.1,0.3v0.1l-2,3.6c0,0.1-0.1,0.1-0.3,0.1H118l0,0c-1.9-0.9-3-1.4-4.4-1.4
		c-1.1,0-1.9,0.5-1.9,1.3v0.1c0,0.9,1.1,1.3,3,1.9c0.3,0.1,0.4,0.1,0.6,0.3C118.3,69.7,121.3,71.2,121.3,74.7 M88.6,80.7h-5.1
		c-0.1,0-0.3-0.1-0.3-0.3V61.9c0-0.1,0.1-0.3,0.3-0.3h4.8c0.1,0,0.3,0.1,0.3,0.3v2.3c1.3-1.8,3.2-2.8,5.1-2.8c0.3,0,0.5,0,0.8,0
		c0.1,0,0.3,0.1,0.3,0.3v4.9c0,0.1,0,0.1-0.1,0.3c0,0-0.1,0.1-0.3,0c-0.1,0-0.5,0-0.9,0c-1.6,0-3.6,0.9-4.3,3.4
		C89,71.1,88.8,72,88.8,73v7.4C88.8,80.6,88.7,80.7,88.6,80.7 M74.7,80.5v-7.4c0-1.1,0.1-2,0.4-2.8c0.8-2.5,2.8-3.4,4.3-3.4
		c0.4,0,0.8,0,0.9,0c0.1,0,0.1,0,0.3,0c0,0,0.1-0.1,0.1-0.3v-4.9c0-0.1-0.1-0.3-0.3-0.3s-0.4,0-0.8,0c-2,0-3.9,1-5.1,2.8v-2.3
		c0-0.1-0.1-0.3-0.3-0.3h-4.8c-0.1,0-0.3,0.1-0.3,0.3v18.5c0,0.1,0.1,0.3,0.3,0.3h5.1C74.7,80.7,74.7,80.6,74.7,80.5 M43,80.7h-5.1
		c-0.1,0-0.3-0.1-0.3-0.3c0-5.8-0.5-12.4-0.6-14.5c-1.8,2.4-3.6,5.7-4.9,8.9c0,0.1-0.1,0.1-0.3,0.1h-2.9c-0.1,0-0.3,0-0.3-0.1
		c-1.4-3.2-3-6.5-4.9-8.9c-0.1,2-0.6,8.6-0.6,14.5c0,0.1-0.1,0.3-0.3,0.3h-5.1c-0.1,0-0.3-0.1-0.3-0.3c0-7.9,0.6-18.3,1.9-23.6
		c0-0.1,0.1-0.3,0.3-0.3h4.1c0.1,0,0.1,0,0.3,0.1c2.7,2.9,4.8,6.2,6.5,9.4c1.6-3.3,3.8-6.5,6.5-9.4c0,0,0.1-0.1,0.3-0.1h4.1
		c0.1,0,0.3,0.1,0.3,0.3c1.3,5.3,1.9,15.7,1.9,23.6C43.3,80.6,43.1,80.7,43,80.7 M164.3,80.5V68.7c0-4.8-2.3-7.4-6.7-7.4
		c-2.9,0-4.8,1.4-5.8,2.5v-1.9c0-0.1-0.1-0.3-0.3-0.3h-4.8c-0.1,0-0.3,0.1-0.3,0.3v18.5c0,0.1,0.1,0.3,0.3,0.3h5.1
		c0.1,0,0.3-0.1,0.3-0.3V72c0-0.9,0.1-1.6,0.3-2.3c0.6-2,2.3-3.3,4.3-3.3c1.6,0,2.3,0.8,2.3,3v10.9c0,0.1,0.1,0.3,0.3,0.3h4.9
		C164.3,80.7,164.3,80.6,164.3,80.5 M133.6,66.1c-2.8,0-4.8,2.2-4.8,5.1c0,2.9,2,5.1,4.8,5.1c2.7,0,4.7-2.2,4.7-5.1
		C138.3,68.3,136.3,66.1,133.6,66.1 M133.6,81.1c-6,0-10.4-4.3-10.4-9.9c0-5.7,4.4-9.9,10.4-9.9s10.4,4.3,10.4,9.9
		C144,76.8,139.6,81.1,133.6,81.1 M102.9,80.5V61.9c0-0.1-0.1-0.3-0.3-0.3h-5.1c-0.1,0-0.3,0.1-0.3,0.3v18.5c0,0.1,0.1,0.3,0.3,0.3
		h5.1C102.8,80.7,102.9,80.6,102.9,80.5 M56.2,66.1c-2.8,0-4.8,2.2-4.8,5.1c0,2.9,2,5.1,4.8,5.1c2.7,0,4.7-2.2,4.7-5.1
		C60.9,68.3,58.9,66.1,56.2,66.1 M56.2,81.1c-6,0-10.4-4.3-10.4-9.9c0-5.7,4.4-9.9,10.4-9.9s10.4,4.3,10.4,9.9
		C66.5,76.8,62,81.1,56.2,81.1"/>
	<path d="M116.2,53.8c-4.6,1.6-8.6-1.4-8.6-1.4s1.1-4.9,5.7-6.6s8.6,1.4,8.6,1.4S120.8,52,116.2,53.8 M128.3,30.7
		c0,0-4.4-2.3-8.8,0.1c-4.2,2.4-4.4,7.5-4.4,7.5s4.4,2.3,8.8-0.1C128,35.8,128.3,30.7,128.3,30.7 M109.1,41.9c-2,4.4-7,5.1-7,5.1
		s-2.7-4.2-0.6-8.6c2-4.4,7-5.1,7-5.1S111.2,37.4,109.1,41.9 M78.5,47.2c0,0,1.1,4.9,5.7,6.6c4.6,1.6,8.6-1.4,8.6-1.4
		s-1.1-4.9-5.7-6.6C82.5,44.2,78.5,47.2,78.5,47.2 M80.7,30.8c4.2,2.4,4.4,7.5,4.4,7.5s-4.4,2.3-8.8-0.1c-4.2-2.4-4.4-7.5-4.4-7.5
		S76.5,28.4,80.7,30.8 M86.3,22.7c0,0-1,4.9,2.4,8.4c3.4,3.4,8.4,2.4,8.4,2.4s1-4.9-2.4-8.4C91.2,21.7,86.3,22.7,86.3,22.7
		 M104.3,15.4c0,4.9-4.2,7.6-4.2,7.6s-4.2-2.7-4.2-7.6s4.2-7.6,4.2-7.6C100,7.7,104.3,10.4,104.3,15.4 M112.7,26.3
		c0,2-1.6,3.6-3.6,3.6c-2,0-3.6-1.6-3.6-3.6c0-1.9,1.6-3.6,3.6-3.6S112.7,24.2,112.7,26.3 M96.7,40.9c0,2-1.6,3.6-3.6,3.6
		s-3.6-1.6-3.6-3.6c0-2,1.6-3.6,3.6-3.6S96.7,39,96.7,40.9"/>
</g>
</svg>
