<?xml version="1.0" encoding="utf-8"?>
<!-- Generator: Adobe Illustrator 28.1.0, SVG Export Plug-In . SVG Version: 6.00 Build 0)  -->
<svg version="1.1" id="Layer_1" xmlns="http://www.w3.org/2000/svg" xmlns:xlink="http://www.w3.org/1999/xlink" x="0px" y="0px"
	 viewBox="0 0 200 100" style="enable-background:new 0 0 200 100;" xml:space="preserve">
<g>
	<path d="M88.1,51.4C88.1,59.2,82,65,74.5,65s-13.6-5.8-13.6-13.6c0-7.9,6.1-13.6,13.6-13.6S88.1,43.6,88.1,51.4z M82.2,51.4
		c0-4.9-3.5-8.2-7.7-8.2s-7.7,3.3-7.7,8.2c0,4.8,3.5,8.2,7.7,8.2S82.2,56.3,82.2,51.4z"/>
	<path d="M117.5,51.4c0,7.8-6.1,13.6-13.6,13.6s-13.6-5.8-13.6-13.6c0-7.9,6.1-13.6,13.6-13.6S117.5,43.6,117.5,51.4z M111.5,51.4
		c0-4.9-3.5-8.2-7.7-8.2s-7.7,3.3-7.7,8.2c0,4.8,3.5,8.2,7.7,8.2S111.5,56.3,111.5,51.4z"/>
	<path d="M145.6,38.7V63c0,10-5.9,14.1-12.9,14.1c-6.6,0-10.5-4.4-12-8l5.2-2.2c0.9,2.2,3.2,4.8,6.8,4.8c4.5,0,7.2-2.8,7.2-8v-2
		h-0.2c-1.3,1.6-3.9,3.1-7.1,3.1c-6.8,0-13-5.9-13-13.5c0-7.7,6.2-13.6,13-13.6c3.2,0,5.8,1.4,7.1,3h0.2v-2.2L145.6,38.7L145.6,38.7
		z M140.4,51.5c0-4.8-3.2-8.3-7.2-8.3c-4.1,0-7.6,3.5-7.6,8.3c0,4.7,3.4,8.2,7.6,8.2C137.2,59.7,140.4,56.2,140.4,51.5z"/>
	<path d="M155,24.4v39.8h-5.8V24.4H155z"/>
	<path d="M177.6,55.9l4.6,3.1c-1.5,2.2-5.1,6-11.3,6c-7.7,0-13.5-6-13.5-13.6c0-8.1,5.8-13.6,12.8-13.6s10.5,5.6,11.6,8.6l0.6,1.5
		l-18.1,7.5c1.4,2.7,3.5,4.1,6.6,4.1C174,59.7,176.1,58.2,177.6,55.9L177.6,55.9z M163.4,51l12.1-5c-0.7-1.7-2.7-2.9-5-2.9
		C167.4,43.1,163.2,45.8,163.4,51z"/>
	<path d="M38.9,47.9v-5.8h19.4c0.2,1,0.3,2.2,0.3,3.5c0,4.3-1.2,9.7-5,13.5C49.9,63,45.2,65,38.9,65c-11.6,0-21.4-9.5-21.4-21.1
		s9.8-21.1,21.4-21.1c6.4,0,11,2.5,14.4,5.8l-4.1,4.1c-2.5-2.3-5.8-4.1-10.4-4.1c-8.5,0-15.1,6.8-15.1,15.3s6.6,15.3,15.1,15.3
		c5.5,0,8.6-2.2,10.6-4.2c1.6-1.6,2.7-4,3.1-7.1H38.9z"/>
</g>
</svg>
