<?xml version="1.0" encoding="utf-8"?>
<!-- Generator: Adobe Illustrator 28.1.0, SVG Export Plug-In . SVG Version: 6.00 Build 0)  -->
<svg version="1.1" id="Layer_1" xmlns="http://www.w3.org/2000/svg" xmlns:xlink="http://www.w3.org/1999/xlink" x="0px" y="0px"
	 viewBox="0 0 200 100" style="enable-background:new 0 0 200 100;" xml:space="preserve">
<path d="M44.5,31.4l15.8,37.9V31.4H44.5z M17.5,31.4v37.9l15.8-37.9H17.5z M32,61.6h7.4l3,7.6H49L38.9,45.4L32,61.6z"/>
<path d="M82.9,31.3l-8.6,38h5.2l2.3-10.5h7.9l2.2,10.5h5.2l-8.1-38C89,31.3,82.9,31.3,82.9,31.3z M82.4,54.6l1.8-9.1
	c0.5-2.4,1.1-5.9,1.5-8.7h0.2c0.4,2.7,0.9,6.1,1.4,8.7l1.7,9.1H82.4z M116.8,30.3h-5.3v14.3h-0.1c-1-2.1-2.7-3.1-4.9-3.1
	c-4.3,0-8.4,4.6-8.4,14.3c0,8.5,3.1,14,8.2,14c2.8,0,4.8-1.9,5.7-3.8h0.2l0.3,3.3h4.6c-0.1-1.9-0.2-5-0.2-7L116.8,30.3L116.8,30.3z
	 M111.6,59.6c0,0.6-0.1,1.3-0.2,1.7c-0.9,3.3-2.5,3.9-3.7,3.9c-2.8,0-4.3-3.9-4.3-9.6c0-5.1,1.1-9.7,4.4-9.7c1.9,0,3.3,2.1,3.6,4.6
	c0.1,0.6,0.1,1.2,0.1,1.7C111.6,52.3,111.6,59.6,111.6,59.6z M129.7,41.4c-5,0-9.7,4.2-9.7,14.2c0,9.4,3.9,14.1,9.4,14.1h0.1
	c4.2,0,9.5-3.3,9.5-14.2C139,46.3,135.1,41.4,129.7,41.4z M129.6,65.5L129.6,65.5c-3.5,0-4.3-5.4-4.3-10c0-4.1,0.7-10,4.2-10
	c3.4,0,4.1,5.9,4.1,10C133.6,59.7,132.9,65.5,129.6,65.5z M153.4,41.4c-2.4,0-4.3,1.1-5.7,3.5h-0.1V30.3h-5.3v31.9
	c0,2.1-0.1,5.2-0.2,7h4.6l0.3-3.4h0.2c1.2,2.4,2.7,3.9,5.4,3.9c4.5,0,8.5-4.8,8.5-14.6C161,46.7,158.1,41.4,153.4,41.4z M151.3,65.3
	c-1.1,0-2.7-0.7-3.5-4c-0.2-0.4-0.2-1.1-0.2-1.7v-7.7c0-0.6,0.1-1.3,0.2-1.9c0.4-2,1.8-4.1,3.5-4.1c3.2,0,4.4,4.2,4.4,9.5
	C155.6,61.1,154.4,65.3,151.3,65.3z M173.4,41.4c-5.7,0-9.8,5.5-9.8,14.5c0,8.4,3.6,13.6,10.5,13.6c2.4,0,4.9-0.4,6.5-1.3l-0.8-3.8
	c-1.2,0.6-2.8,1-4.7,1c-3.2,0-6.3-1.7-6.3-8.8l12.8,0.1c0.1-0.7,0.1-1.6,0.1-2.9C181.8,46.9,179.1,41.4,173.4,41.4z M168.9,52.9
	c0.2-3.4,1.4-7.4,4.2-7.4c2.1,0,3.8,2.6,3.7,7.4H168.9z M181.5,42.6L181.5,42.6c0.1-0.1,0.3-0.2,0.3-0.3c0-0.1,0-0.2-0.1-0.3
	c-0.1-0.1-0.2-0.1-0.4-0.1c-0.2,0-0.3,0-0.4,0v1.4h0.2v-0.6h0.2c0.2,0,0.3,0.1,0.3,0.2c0,0.2,0.1,0.3,0.1,0.3h0.2
	c0,0-0.1-0.1-0.1-0.3C181.7,42.8,181.6,42.6,181.5,42.6z M181.2,42.5h-0.2v-0.5c0,0,0.1,0,0.2,0c0.2,0,0.3,0.1,0.3,0.2
	C181.6,42.5,181.4,42.5,181.2,42.5z M181.3,41.4L181.3,41.4c-0.7,0-1.2,0.5-1.2,1.2c0,0.7,0.5,1.2,1.2,1.2c0.7,0,1.2-0.5,1.2-1.2
	C182.5,41.9,182,41.4,181.3,41.4z M181.3,43.6c-0.5,0-1-0.5-1-1c0-0.6,0.4-1,1-1h0c0.5,0,1,0.5,1,1
	C182.3,43.2,181.8,43.6,181.3,43.6z M62.4,31.4L62.4,31.4c-0.7,0-1.2,0.5-1.2,1.2c0,0.7,0.5,1.2,1.2,1.2c0.7,0,1.2-0.5,1.2-1.2
	C63.6,31.9,63,31.4,62.4,31.4z M62.4,33.7c-0.5,0-1-0.5-1-1c0-0.6,0.4-1,1-1h0c0.5,0,1,0.5,1,1C63.3,33.2,62.9,33.7,62.4,33.7z
	 M62.6,32.7L62.6,32.7c0.1-0.1,0.3-0.2,0.3-0.3c0-0.1,0-0.2-0.1-0.3c-0.1-0.1-0.2-0.1-0.4-0.1c-0.2,0-0.3,0-0.4,0v1.4h0.2v-0.6h0.2
	c0.2,0,0.3,0.1,0.3,0.2c0,0.2,0.1,0.3,0.1,0.3h0.2c0,0-0.1-0.1-0.1-0.3C62.8,32.8,62.7,32.7,62.6,32.7z M62.3,32.6h-0.2v-0.5
	c0,0,0.1,0,0.2,0c0.2,0,0.3,0.1,0.3,0.2C62.6,32.5,62.5,32.6,62.3,32.6z"/>
</svg>
