<?xml version="1.0" encoding="utf-8"?>
<!-- Generator: Adobe Illustrator 28.1.0, SVG Export Plug-In . SVG Version: 6.00 Build 0)  -->
<svg version="1.1" id="Layer_1" xmlns="http://www.w3.org/2000/svg" xmlns:xlink="http://www.w3.org/1999/xlink" x="0px" y="0px"
	 viewBox="0 0 200 100" style="enable-background:new 0 0 200 100;" xml:space="preserve">
<g>
	<path d="M53,59.4l-5-6.6h-2v6.6h-5.9V42.1h8.8c6.5,0,10.6,1.8,10.6,5.4c0,2.5-2.3,3.9-5.6,4.8l5.7,7.2H53z M48.5,45.1h-2.7v4.8h2.9
		c3,0,4.7-0.9,4.7-2.3C53.5,45.8,52.1,45.1,48.5,45.1z M74.2,52.8v6.6h-5.9V53l-8.6-10.9h6.5l2.5,3.6c1.1,1.4,2.2,3.2,2.5,4.1
		c0.4-0.9,1.4-2.7,2.5-4.1l2.5-3.6h6.5L74.2,52.8z M96.6,59.4L95,55.9h-7.4L86,59.4h-6.1l8.4-17.4h5.7l8.4,17.4H96.6z M92.8,50.8
		c-0.5-1.3-1.3-3.4-1.6-4.3c-0.2,0.9-0.9,2.7-1.4,4.1l-0.9,2.2h4.8L92.8,50.8z M118.8,59.4l-6.1-7.7c-0.9-1.1-2-2.5-2.5-3.6
		c0,1.1,0.2,2.9,0.2,3.9v7.4H105V42.1h5.9l5.7,7.7c0.7,1.1,2,2.7,2.7,3.6c0-1.1-0.2-3-0.2-4.1v-7.2h5.4v17.4H118.8z M143.6,59.4
		l-1.6-3.6h-7.4l-1.6,3.6h-6.1l8.4-17.4h5.9l8.4,17.4H143.6z M139.8,50.8c-0.5-1.3-1.3-3.4-1.6-4.3c-0.2,0.9-0.9,2.7-1.4,4.1
		l-0.9,2.2h4.8L139.8,50.8z M152,59.4V42.1h5.9v17.4H152z M176,59.4l-5.2-6.6h-2v6.6H163V42.1h8.8c6.5,0,10.6,1.8,10.6,5.4
		c0,2.5-2.3,3.9-5.6,4.8l5.7,7.2H176z M171.6,45.1h-2.7v4.8h2.9c3,0,4.7-0.9,4.7-2.3C176.6,45.8,175.1,45.1,171.6,45.1z"/>
	<g>
		<path d="M30.4,41.3c1.3,0.4,2.5,0.7,3.8,0.9h0.9c0.5,0,0.9-0.2,1.4-0.4h0.2c0,0.2,0,0.2-0.2,0.4c-0.7,0.5-1.4,0.9-2.2,1.1
			c-0.2,0-0.5,0.2-0.7,0.2c-0.9,0.4-2,0.4-2.9,0.4c-1.8-0.2-3.4-0.7-5.2-0.7c-1.6-0.2-3.2,0.5-4.1,1.8c-0.2,0.7-0.5,1.4-0.5,2.2
			s1.1,0.9,1.4,1.4l0.5,1.1c0.2,0.7,0.5,1.4,1.1,2.2c0.4,0.4,0.7,0.9,1.3,1.1c0.7,0.5,1.3,1.1,1.6,1.8s0.7,1.3,0.9,2
			c0.2,0.4,0.4,0.7,0.4,1.3V58c0.2,0.4,0.2,0.7,0.4,0.9v0.2c0,0.2,0.2,0.5,0,0.5c-0.4-0.4-0.5-0.7-0.7-1.1c-0.2-0.7-0.7-1.4-1.3-2.2
			c-0.4-0.4-0.7-0.9-1.1-1.3c-1.4-1.6-3.6-2.7-5.2-4.1c0,0,0-0.2-0.2-0.4c-0.2-0.4-0.4-0.5-0.5-0.9c-0.4-0.7-0.9-1.4-1.3-2.3
			c0-0.4-0.2-0.7-0.2-1.1v-0.2c0-0.4-0.9-0.5-0.4-1.3c0.4-0.4,1.4-0.7,1.8-1.4v-0.4c0,0,0-0.2-0.2-0.2s-0.7,0.4-0.7-0.2v-0.5
			c0.2-0.4,0.2-0.7,0.2-1.1c0-0.2,0.2-0.2,0.4-0.2s0.5-0.2,0.7-0.2c0.5,0,1.3,0,1.6,0.4c0.2,0.4,0,0.7,0,1.1s-0.4,0.5-0.2,0.7h0.4
			c0.7-0.5,1.4-1.3,2.2-2c0.5-0.5,1.4-0.7,2.2-0.5C27.5,40.4,28.8,41,30.4,41.3z"/>
		<path d="M26.3,44.2c0.2,0.4,0,0.5-0.2,0.9c-0.9,1.3-1.3,2.9-1.8,4.3h-0.2c-0.2,0-0.2-0.2-0.2-0.4c0-1.6,0.5-3,1.3-4.5
			c0.2-0.2,0.4-0.5,0.7-0.4C26.1,44,26.1,44.2,26.3,44.2z M28.8,44.6c0.2,0.5-0.2,0.9-0.4,1.4c-0.9,1.8-2,3.6-2.5,5.6
			c0,0,0,0.2-0.2,0.2h-0.2c-0.2-0.7,0-1.6,0.2-2.3c0.5-1.6,1.1-3.2,2-4.8c0.2,0,0.2-0.2,0.2-0.2C28.3,44.4,28.6,44.4,28.8,44.6z
			 M31.3,44.7c0.2,0.2,0.2,0.5,0,0.7c-1.1,2.3-2.7,4.3-3.4,6.8l-0.5,1.6c0,0.2-0.2,0.2-0.2,0c-0.2-0.2,0-0.5,0-0.7
			c0.2-2,0.7-3.9,1.6-5.6c0.4-0.9,0.9-1.6,1.3-2.5c0.2-0.2,0.4-0.5,0.7-0.5C30.9,44.6,31.1,44.6,31.3,44.7z M34.2,44.9
			c0.2,0.4,0,0.5,0,0.9c-0.7,1.8-2,3.4-2.9,5.2c-0.9,1.4-1.4,3-2,4.5c-0.2,0.5-0.4,0.9-0.5,1.4h-0.2c-0.2-0.2-0.2-0.4-0.2-0.5
			c0.2-2,0.9-3.6,1.6-5.4c0.9-2,2-3.8,2.9-5.7c0.2-0.2,0.4-0.5,0.7-0.7C33.8,44.6,34,44.6,34.2,44.9z"/>
	</g>
</g>
</svg>
