<?xml version="1.0" encoding="utf-8"?>
<!-- Generator: Adobe Illustrator 28.1.0, SVG Export Plug-In . SVG Version: 6.00 Build 0)  -->
<svg version="1.1" id="Layer_1" xmlns="http://www.w3.org/2000/svg" xmlns:xlink="http://www.w3.org/1999/xlink" x="0px" y="0px"
	 viewBox="0 0 200 100" style="enable-background:new 0 0 200 100;" xml:space="preserve">
<g>
	<path id="e" d="M38.8,31.4c-11.6,0-21.3,4.9-21.3,19.8c0,11.8,6.5,19.2,21.6,19.2c17.8,0,18.9-11.7,18.9-11.7h-8.6
		c0,0-1.8,6.3-10.8,6.3C31.3,65,26,60.1,26,53.1H59v-4.3C59,41.9,54.6,31.4,38.8,31.4L38.8,31.4z M38.5,36.9c7,0,11.7,4.3,11.7,10.7
		h-24C26.2,40.8,32.4,36.9,38.5,36.9z"/>
	<path id="b" d="M59,16.9v46c0,2.6-0.2,6.3-0.2,6.3H67c0,0,0.3-2.6,0.3-5c0,0,4.1,6.4,15.1,6.4c11.6,0,19.5-8.1,19.5-19.6
		c0-10.8-7.3-19.4-19.5-19.4c-11.5,0-15,6.2-15,6.2V16.9H59z M80.3,37.2c7.9,0,12.9,5.9,12.9,13.7c0,8.4-5.8,14-12.9,14
		c-8.4,0-13-6.6-13-13.9C67.4,44.2,71.5,37.2,80.3,37.2z"/>
	<path id="a" d="M122.4,31.4c-17.5,0-18.6,9.6-18.6,11.1h8.7c0,0,0.5-5.6,9.3-5.6c5.8,0,10.2,2.6,10.2,7.7v1.8h-10.2
		c-13.6,0-20.7,4-20.7,12c0,7.9,6.6,12.2,15.6,12.2c12.2,0,16.1-6.7,16.1-6.7c0,2.7,0.2,5.3,0.2,5.3h7.7c0,0-0.3-3.3-0.3-5.4V45.7
		C140.4,33.9,130.8,31.4,122.4,31.4L122.4,31.4z M132,51.8v2.4c0,3.1-1.9,10.9-13.3,10.9c-6.2,0-8.9-3.1-8.9-6.7
		C109.7,51.8,118.8,51.8,132,51.8L132,51.8z"/>
	<path id="y" d="M135.7,32.9h9.8l14.1,28.2l14-28.2h8.9l-25.6,50.2h-9.3l7.4-14L135.7,32.9z"/>
</g>
</svg>
