<?xml version="1.0" encoding="utf-8"?>
<!-- Generator: Adobe Illustrator 28.1.0, SVG Export Plug-In . SVG Version: 6.00 Build 0)  -->
<svg version="1.1" id="Layer_1" xmlns="http://www.w3.org/2000/svg" xmlns:xlink="http://www.w3.org/1999/xlink" x="0px" y="0px"
	 viewBox="0 0 200 100" style="enable-background:new 0 0 200 100;" xml:space="preserve">
<g>
	<path d="M86.1,39.4v21.1h-3.7V44h0l-6.5,16.6h-2.4L66.7,44h0v16.6h-3.4V39.4h5.3l6.1,15.6h0.1l6.4-15.6
		C81.1,39.4,86.1,39.4,86.1,39.4z M89.1,41.1c0-0.6,0.2-1.1,0.6-1.5s0.9-0.6,1.5-0.6c0.6,0,1.2,0.2,1.6,0.6s0.6,0.9,0.6,1.5
		c0,0.6-0.2,1.1-0.6,1.5c-0.4,0.4-0.9,0.6-1.6,0.6s-1.1-0.2-1.5-0.6C89.4,42.1,89.1,41.6,89.1,41.1z M93.1,45.4v15.2h-3.6V45.4
		C89.5,45.4,93.1,45.4,93.1,45.4z M103.9,58c0.5,0,1.1-0.1,1.8-0.4c0.6-0.2,1.2-0.6,1.8-1v3.3c-0.6,0.3-1.2,0.6-2,0.7
		s-1.5,0.2-2.4,0.2c-2.2,0-4.1-0.7-5.4-2.1c-1.4-1.4-2.1-3.2-2.1-5.4c0-2.4,0.7-4.4,2.2-6s3.4-2.3,6.1-2.3c0.7,0,1.4,0.1,2,0.2
		c0.7,0.1,1.2,0.4,1.6,0.6v3.4c-0.5-0.4-1.1-0.7-1.7-0.9c-0.6-0.2-1.2-0.3-1.8-0.3c-1.4,0-2.5,0.4-3.4,1.4c-0.9,0.9-1.3,2.2-1.3,3.7
		c0,1.5,0.4,2.7,1.3,3.6C101.4,57.5,102.5,58,103.9,58z M117.5,45.2c0.3,0,0.5,0,0.8,0s0.4,0.1,0.6,0.1V49c-0.2-0.1-0.4-0.3-0.8-0.4
		c-0.4-0.1-0.8-0.2-1.3-0.2c-0.9,0-1.6,0.4-2.2,1.1s-0.9,1.9-0.9,3.4v7.6h-3.6V45.4h3.6v2.4h0c0.3-0.8,0.8-1.5,1.5-2
		C115.8,45.4,116.6,45.2,117.5,45.2z M119.1,53.2c0-2.5,0.7-4.5,2.1-6c1.4-1.5,3.4-2.2,5.9-2.2c2.3,0,4.2,0.7,5.5,2.1
		c1.3,1.4,2,3.3,2,5.7c0,2.4-0.7,4.4-2.1,5.9c-1.4,1.5-3.3,2.2-5.8,2.2c-2.3,0-4.2-0.7-5.6-2.1C119.8,57.5,119.1,55.6,119.1,53.2z
		 M122.8,53.1c0,1.6,0.3,2.8,1.1,3.6c0.7,0.8,1.8,1.3,3.1,1.3c1.3,0,2.3-0.4,3-1.3c0.7-0.8,1-2.1,1-3.7c0-1.6-0.3-2.8-1-3.7
		c-0.7-0.8-1.7-1.3-2.9-1.3c-1.3,0-2.3,0.4-3,1.3C123.2,50.2,122.8,51.5,122.8,53.1z M139.9,49.4c0,0.5,0.1,0.9,0.5,1.2
		c0.3,0.3,1,0.6,2.2,1.1c1.4,0.6,2.4,1.2,3,1.9c0.6,0.7,0.9,1.6,0.9,2.6c0,1.4-0.5,2.5-1.7,3.4c-1.1,0.9-2.6,1.3-4.4,1.3
		c-0.6,0-1.3-0.1-2.1-0.2s-1.4-0.3-2-0.6v-3.5c0.6,0.4,1.4,0.8,2.1,1.1c0.7,0.2,1.4,0.4,2.1,0.4c0.8,0,1.4-0.1,1.8-0.3
		c0.4-0.2,0.6-0.6,0.6-1.1c0-0.5-0.2-0.9-0.6-1.3c-0.4-0.3-1.2-0.7-2.2-1.2c-1.3-0.5-2.2-1.2-2.8-1.9s-0.8-1.6-0.8-2.6
		c0-1.4,0.5-2.5,1.6-3.4c1.1-0.9,2.5-1.3,4.2-1.3c0.5,0,1.1,0,1.8,0.2s1.2,0.3,1.7,0.4V49c-0.5-0.3-1-0.6-1.7-0.8s-1.3-0.3-1.9-0.3
		c-0.7,0-1.2,0.1-1.6,0.4C140.1,48.6,139.9,48.9,139.9,49.4z M147.9,53.2c0-2.5,0.7-4.5,2.1-6c1.4-1.5,3.4-2.2,5.9-2.2
		c2.3,0,4.2,0.7,5.5,2.1c1.3,1.4,2,3.3,2,5.7c0,2.4-0.7,4.4-2.1,5.9c-1.4,1.5-3.3,2.2-5.8,2.2c-2.3,0-4.2-0.7-5.6-2.1
		C148.7,57.5,147.9,55.6,147.9,53.2z M151.7,53.1c0,1.6,0.3,2.8,1.1,3.6c0.7,0.8,1.8,1.3,3.1,1.3c1.3,0,2.3-0.4,3-1.3
		c0.7-0.8,1-2.1,1-3.7c0-1.6-0.3-2.8-1-3.7c-0.7-0.8-1.7-1.3-2.9-1.3c-1.3,0-2.3,0.4-3,1.3C152.1,50.2,151.7,51.5,151.7,53.1z
		 M175.3,48.3H170v12.2h-3.6V48.3h-2.5v-2.9h2.5v-2.1c0-1.6,0.5-2.9,1.6-3.9c1-1,2.3-1.5,4-1.5c0.4,0,0.8,0,1.2,0s0.6,0.1,0.9,0.2
		v3.1c-0.1,0-0.3-0.1-0.6-0.2c-0.3-0.1-0.6-0.1-1-0.1c-0.7,0-1.3,0.2-1.7,0.7s-0.6,1.2-0.6,2.1v1.8h5.3v-3.4l3.6-1.1v4.5h3.6v2.9
		h-3.6v7.1c0,0.9,0.2,1.6,0.5,2c0.3,0.4,0.9,0.6,1.6,0.6c0.2,0,0.4,0,0.7-0.1c0.3-0.1,0.5-0.2,0.7-0.3v2.9c-0.2,0.1-0.6,0.2-1.1,0.3
		c-0.5,0.1-1,0.1-1.6,0.1c-1.5,0-2.6-0.4-3.4-1.2c-0.7-0.8-1.1-2-1.1-3.6L175.3,48.3L175.3,48.3z"/>
	<rect x="17.5" y="32.4" width="16.7" height="16.7"/>
	<rect x="36" y="32.4" width="16.7" height="16.7"/>
	<rect x="17.5" y="50.9" width="16.7" height="16.7"/>
	<rect x="36" y="50.9" width="16.7" height="16.7"/>
</g>
</svg>
