<?xml version="1.0" encoding="utf-8"?>
<!-- Generator: Adobe Illustrator 28.1.0, SVG Export Plug-In . SVG Version: 6.00 Build 0)  -->
<svg version="1.1" id="Layer_1" xmlns="http://www.w3.org/2000/svg" xmlns:xlink="http://www.w3.org/1999/xlink" x="0px" y="0px"
	 viewBox="0 0 200 100" style="enable-background:new 0 0 200 100;" xml:space="preserve">
<g>
	<path d="M118.5,61.8c-10.7,4.6-22.4,6.8-33.1,6.8c-15.8,0-31-4.3-43.3-11.5c-1.1-0.6-1.9,0.5-1,1.3c11.4,10.3,26.5,16.5,43.3,16.5
		c12,0,25.9-3.8,35.5-10.8C121.5,62.8,120.1,61.1,118.5,61.8z"/>
	<path d="M112.4,57.8c-0.8,0.6-0.7,1.4,0.2,1.3c3.1-0.4,10-1.2,11.2,0.4c1.2,1.6-1.4,8-2.5,10.9c-0.4,0.9,0.4,1.2,1.2,0.6
		c5.1-4.3,6.5-13.3,5.4-14.6C126.9,55.1,117.9,53.9,112.4,57.8z"/>
	<path d="M131.2,46.9c-2.9-1.7-6.3-2.1-9.6-2.1l8.7-12.4c0.8-1.1,1.3-1.8,1.3-2.4v-3.2c0-0.6-0.4-0.9-1-0.9h-16.8
		c-0.5,0-0.9,0.4-0.9,0.9v3.7c0,0.6,0.4,0.9,1,0.9h8.8L112.5,46c-0.6,0.9-0.6,2-0.6,2.6v3.8c0,0.5,0.6,1.2,1.2,0.9
		c5.7-3,12.6-2.7,17.7,0c0.6,0.3,1.2-0.3,1.2-0.9v-4C132,47.8,131.9,47.2,131.2,46.9z"/>
	<path d="M46.5,54h5.1c0.5,0,1-0.4,1-0.9V39.1c0-3-0.1-7.2,3.5-7.2c3.6,0,3.1,4.3,3.1,7.2l0,13.9c0,0.5,0.4,0.9,0.9,0.9h5.1
		c0.5,0,1-0.4,1-0.9V39.1c0-1.5-0.1-3.7,0.5-5c0.5-1.3,1.8-2.1,3.1-2.1c1.5,0,2.6,0.5,3,2.3c0.2,1,0.1,3.8,0.1,4.9V53
		c0,0.5,0.4,0.9,0.9,0.9H79c0.5,0,1-0.4,1-0.9l0-16.5c0-2.8,0.3-6-1.3-8.2c-1.4-2-3.8-2.9-5.9-2.9c-3,0-5.8,1.5-7.1,4.9
		c-1.4-3.3-3.4-4.9-6.6-4.9c-3.1,0-5.5,1.5-6.7,4.9h-0.1v-3.4c0-0.5-0.4-0.9-0.9-0.9h-4.8c-0.5,0-1,0.4-1,0.9v26.2
		C45.7,53.6,46,53.9,46.5,54z"/>
	<path d="M146,25.4c-7.4,0-11.5,6.3-11.5,14.5c0,8.1,4.1,14.6,11.5,14.6c7.1,0,11.7-6.3,11.7-14.3C157.7,31.9,153.6,25.4,146,25.4z
		 M146,49.1c-4,0-4-6.8-4-10c0-3.2,0.2-8.3,4-8.3c1.6,0,2.8,0.7,3.3,2.5c0.7,2.1,0.8,4.7,0.8,7C150.2,43.6,150,49.1,146,49.1z"/>
	<polygon points="146,25.4 146,25.4 146,25.4 	"/>
	<path d="M181.2,28.5c-1.4-2.3-3.7-3.1-6-3.1c-3.5,0-5.5,1.7-7,5.3h-0.1v-4c-0.1-0.4-0.5-0.7-0.9-0.7h-4.7c-0.5,0-0.9,0.4-1,0.9
		l0,26.2c0,0.5,0.4,0.9,0.9,0.9h5.1c0.5,0,1-0.4,1-0.9V38.9c0-1.8,0.1-3.4,0.8-5c0.6-1.3,1.7-2.1,3-2.1c3.5,0,3.2,4.2,3.2,7.1v14.2
		c0.1,0.4,0.4,0.8,0.9,0.8h5.1c0.5,0,0.9-0.4,1-0.8V36.6C182.5,34.1,182.5,30.6,181.2,28.5z"/>
	<path d="M99.5,36.2c-3,0.3-6.8,0.6-9.6,1.8c-3.2,1.4-5.4,4.2-5.4,8.3c0,5.3,3.3,8,7.6,8c3.6,0,5.6-0.9,8.4-3.7
		c0.9,1.3,1.2,2,2.9,3.4c0.4,0.2,0.9,0.2,1.2-0.1l0,0c1-0.9,2.9-2.5,3.9-3.4c0.4-0.3,0.3-0.9,0-1.4c-0.9-1.3-1.9-2.3-1.9-4.7v-8
		c0-3.4,0.2-6.5-2.2-8.8c-2-1.9-5.2-2.5-7.7-2.5c-4.9,0-10.3,1.8-11.4,7.8c-0.1,0.6,0.3,1,0.8,1.1l5,0.5c0.5,0,0.8-0.5,0.9-0.9
		c0.4-2.1,2.2-3.1,4.1-3.1c1,0,2.2,0.4,2.9,1.3c0.7,1,0.6,2.5,0.6,3.7V36.2z M98.5,46.9c-0.8,1.4-2.1,2.3-3.5,2.3
		c-2,0-3.1-1.5-3.1-3.7c0-4.4,3.9-5.1,7.6-5.1v1.1C99.5,43.4,99.5,45.1,98.5,46.9z"/>
	<path d="M41.6,49.2c-0.9-1.3-1.9-2.3-1.9-4.7v-8c0-3.4,0.2-6.5-2.2-8.8c-2-1.9-5.2-2.5-7.7-2.5c-4.9,0-10.3,1.8-11.4,7.8
		c-0.1,0.6,0.3,1,0.8,1.1l5,0.5c0.5,0,0.8-0.5,0.9-0.9c0.4-2.1,2.2-3.1,4.1-3.1c1,0,2.2,0.4,2.9,1.3c0.7,1,0.6,2.5,0.6,3.7v0.7
		c-3,0.3-6.8,0.6-9.6,1.8c-3.2,1.4-5.4,4.2-5.4,8.3c0,5.3,3.3,8,7.6,8c3.6,0,5.6-0.9,8.4-3.7c0.9,1.3,1.2,2,2.9,3.4
		c0.4,0.2,0.9,0.2,1.2-0.1l0,0c1-0.9,2.9-2.5,3.9-3.4C42,50.2,42,49.6,41.6,49.2z M31.6,46.9c-0.8,1.4-2.1,2.3-3.5,2.3
		c-2,0-3.1-1.5-3.1-3.7c0-4.4,3.9-5.1,7.6-5.1v1.1C32.5,43.4,32.6,45.1,31.6,46.9z"/>
</g>
</svg>
