<?xml version="1.0" encoding="utf-8"?>
<!-- Generator: Adobe Illustrator 28.3.0, SVG Export Plug-In . SVG Version: 6.00 Build 0)  -->
<svg version="1.1" id="Layer_1" xmlns="http://www.w3.org/2000/svg" xmlns:xlink="http://www.w3.org/1999/xlink" x="0px" y="0px"
	 viewBox="0 0 148 131" style="enable-background:new 0 0 148 131;" xml:space="preserve">
<style type="text/css">
	.st0{opacity:0.5;fill-rule:evenodd;clip-rule:evenodd;fill:#E1E1E1;enable-background:new    ;}
</style>
<path class="st0" d="M29.2,21.2c0-6.5,2.3-12.3,15-21.2C43.5,8.8,39.6,13.8,29.2,21.2z M23.1,27.9c-3.1-5.8-3.7-12,3.4-25.7
	C29.9,10.4,28.8,16.6,23.1,27.9z M14.7,52.1c-5.6-3.3-9.4-8.3-10.5-23.7C11.4,33.5,13.8,39.4,14.7,52.1z M16.7,68.3
	c-6-2.6-10.4-7-13.5-22.2C11.1,50.4,14.2,55.9,16.7,68.3z M20.2,79.7C13.7,79.3,8.1,76.6,0,63.4C8.8,64.7,13.5,68.9,20.2,79.7z
	 M32.9,95.8c-5.6,1.2-15.5-3.3-24.8-15.6C20.4,81.5,25.2,85.7,32.9,95.8z M40.9,102.7c-4.7,3.3-16.7,3.1-29.8-4.5
	C21.6,94.6,29.8,96.5,40.9,102.7z M25.7,84.9c-4.5-4.7-7.3-16.1-3.4-28.4C27.9,63.5,28.9,73.9,25.7,84.9z M45.4,104
	c-10.8-5.9-12.7-12.8-16.3-25.6l0-0.1C38.1,82.3,43.5,93.1,45.4,104z M21.2,36.1c1.3-6.4,6.9-14.2,18.1-18.4
	C38.1,25.8,28.5,34.2,21.2,36.1z M16.3,41.2c-3.5-5.5-5.5-15.8-0.4-26.6C20.7,21.3,20.3,34.8,16.3,41.2z M16.6,61.1
	c-1.1-6.4,0.9-16.7,9.7-24.7C28.2,44.3,22.8,56.6,16.6,61.1z M56.2,109.2c-4.3,4.2-19.2,6.8-30,1.9
	C32.7,106.3,45.4,105.4,56.2,109.2z M69,113.4c-1.3,6.5-15.6,8.9-29.4,6.5C45.4,114.1,51.6,111.5,69,113.4
	c-16.3-6.8-21.3-11.8-22.9-19.2C61.6,99.2,71.2,108.5,69,113.4L69,113.4z M64,122.6L64,122.6c-3.8,2.7-7.5,5.3-6.3,7
	c1.9,2.7,13.1-7.3,12.3-11.9C68.8,119.2,66.4,120.9,64,122.6z M118.8,21.2c0-6.5-2.3-12.3-15-21.2C104.5,8.8,108.4,13.8,118.8,21.2z
	 M124.9,27.9c3.1-5.8,3.7-12-3.4-25.7C118.1,10.4,119.2,16.6,124.9,27.9z M133.3,52.1c5.6-3.3,9.4-8.3,10.5-23.7
	C136.6,33.5,134.2,39.4,133.3,52.1z M131.3,68.3c6-2.6,10.4-7,13.5-22.2C136.9,50.4,133.8,55.9,131.3,68.3z M127.8,79.7
	c6.5-0.4,12.1-3.1,20.2-16.3C139.2,64.7,134.5,68.9,127.8,79.7z M115.1,95.8c5.6,1.2,15.5-3.3,24.8-15.6
	C127.6,81.5,122.8,85.7,115.1,95.8z M107.1,102.7c4.7,3.3,16.7,3.1,29.8-4.5C126.4,94.6,118.2,96.5,107.1,102.7z M122.3,84.9
	c4.5-4.7,7.3-16.1,3.4-28.4C120.1,63.5,119.1,73.9,122.3,84.9z M102.6,104c10.8-5.9,12.7-12.8,16.3-25.6l0-0.1
	C109.9,82.3,104.5,93.1,102.6,104z M126.8,36.1c-1.3-6.4-6.9-14.2-18.1-18.4C109.9,25.8,119.5,34.2,126.8,36.1z M131.7,41.2
	c3.5-5.5,5.5-15.8,0.4-26.6C127.3,21.3,127.7,34.8,131.7,41.2z M131.4,61.1c1.1-6.4-0.9-16.7-9.7-24.7
	C119.8,44.3,125.2,56.6,131.4,61.1z M91.8,109.2c4.3,4.2,19.2,6.8,30,1.9C115.3,106.3,102.6,105.4,91.8,109.2z M79,113.4
	c1.3,6.5,15.6,8.9,29.4,6.5C102.6,114.1,96.4,111.5,79,113.4c16.3-6.8,21.3-11.8,22.9-19.2C86.4,99.2,76.8,108.5,79,113.4L79,113.4z
	 M84,122.6L84,122.6c3.8,2.7,7.5,5.3,6.3,7c-1.9,2.7-13.1-7.3-12.3-11.9C79.2,119.2,81.6,120.9,84,122.6z"/>
</svg>
