<?xml version="1.0" encoding="utf-8"?>
<!-- Generator: Adobe Illustrator 28.3.0, SVG Export Plug-In . SVG Version: 6.00 Build 0)  -->
<svg version="1.1" id="Layer_1" xmlns="http://www.w3.org/2000/svg" xmlns:xlink="http://www.w3.org/1999/xlink" x="0px" y="0px"
	 viewBox="0 0 60 60" style="enable-background:new 0 0 60 60;" xml:space="preserve">
<style type="text/css">
	.st0{fill:none;stroke:#91C378;stroke-width:2;stroke-linecap:round;stroke-linejoin:round;}
</style>
<path class="st0" d="M26.7,35.8V37c0,0.9-0.4,1.7-1,2.4L25,40h10l-0.7-0.7c-0.6-0.6-1-1.5-1-2.4v-1.1 M40,22.5v10.8
	c0,1.4-1.1,2.5-2.5,2.5h-15c-1.4,0-2.5-1.1-2.5-2.5V22.5 M40,22.5c0-1.4-1.1-2.5-2.5-2.5h-15c-1.4,0-2.5,1.1-2.5,2.5 M40,22.5V30
	c0,1.4-1.1,2.5-2.5,2.5l0,0h-15c-1.4,0-2.5-1.1-2.5-2.5l0,0v-7.5"/>
</svg>
