<?xml version="1.0" encoding="utf-8"?>
<!-- Generator: Adobe Illustrator 28.3.0, SVG Export Plug-In . SVG Version: 6.00 Build 0)  -->
<svg version="1.1" id="Layer_1" xmlns="http://www.w3.org/2000/svg" xmlns:xlink="http://www.w3.org/1999/xlink" x="0px" y="0px"
	 viewBox="0 0 20 16" style="enable-background:new 0 0 20 16;" xml:space="preserve">
<style type="text/css">
	.st0{fill:none;stroke:#6E727F;stroke-width:2;stroke-linecap:round;stroke-linejoin:round;}
</style>
<path class="st0" d="M13,13h3c1.7,0,3-1.3,3-3s-1.3-3-3-3h0c0-0.2,0-0.3,0-0.5c0-3-2.5-5.5-5.5-5.5C8,1,5.9,2.7,5.2,5
	C5.1,5,5.1,5,5,5C2.8,5,1,6.8,1,9s1.8,4,4,4h2.2 M10,15V6 M10,6L8,8 M10,6l2,2"/>
</svg>
