<?xml version="1.0" encoding="utf-8"?>
<!-- Generator: Adobe Illustrator 28.1.0, SVG Export Plug-In . SVG Version: 6.00 Build 0)  -->
<svg version="1.1" id="Layer_1" xmlns="http://www.w3.org/2000/svg" xmlns:xlink="http://www.w3.org/1999/xlink" x="0px" y="0px"
	 viewBox="0 0 200 190" style="enable-background:new 0 0 200 190;" xml:space="preserve">
<style type="text/css">
	.st0{fill:#BE5F00;}
	.st1{fill:#E69132;}
	.st2{fill:#91C378;}
	.st3{fill:#F4F9F1;}
</style>
<g>
	<path class="st0" d="M199,1v138H1V1H199 M200,0H0v140h200V0L200,0z"/>
</g>
<g>
	<g>
		<path class="st1" d="M36.5,88.4H25V25h11.5V88.4z"/>
		<path class="st1" d="M106.8,88.4H65.3c-1.1,0-2.2-0.1-3.4-0.4s-2.4-0.6-3.6-1.2c-1.2-0.5-2.3-1.2-3.4-2.1
			c-1.1-0.8-2.1-1.9-2.9-3.1c-0.8-1.2-1.5-2.6-2-4.2c-0.5-1.6-0.8-3.4-0.8-5.3V41.2c0-1.1,0.1-2.2,0.4-3.4c0.3-1.2,0.6-2.4,1.2-3.6
			s1.2-2.3,2.1-3.4c0.9-1.1,1.9-2.1,3.1-2.9s2.6-1.5,4.1-2c1.6-0.5,3.3-0.8,5.3-0.8h41.5v11.5H65.3c-1.5,0-2.7,0.4-3.5,1.2
			s-1.2,2-1.2,3.5v31.1c0,1.5,0.4,2.6,1.2,3.4c0.8,0.8,2,1.2,3.4,1.2h41.5V88.4z"/>
		<path class="st1" d="M175,36.5h-25.4v51.9h-11.5V36.5h-25.4V25H175V36.5z"/>
	</g>
	<g>
		<path class="st0" d="M40.8,110.7c0,0.7-0.1,1.2-0.2,1.8c-0.2,0.5-0.4,1-0.7,1.4c-0.3,0.4-0.6,0.7-1,1c-0.4,0.3-0.7,0.5-1.1,0.7
			s-0.8,0.3-1.2,0.4c-0.4,0.1-0.8,0.1-1.1,0.1H25.2v-3.8h10.3c0.5,0,0.9-0.1,1.2-0.4c0.3-0.3,0.4-0.6,0.4-1.1c0-1-0.6-1.5-1.5-1.5
			h-5.9c-0.8,0-1.6-0.1-2.1-0.4c-0.6-0.3-1.1-0.7-1.4-1.1c-0.4-0.4-0.6-0.9-0.8-1.4c-0.2-0.5-0.2-1-0.2-1.4c0-0.8,0.2-1.6,0.5-2.1
			s0.7-1.1,1.1-1.4c0.5-0.4,1-0.6,1.5-0.8c0.5-0.2,1-0.2,1.5-0.2h9.4v3.8h-9.3c-0.2,0-0.3,0-0.5,0.1c-0.1,0-0.2,0.1-0.2,0.2
			c-0.1,0.1-0.1,0.2-0.1,0.2c0,0.1,0,0.2,0,0.2c0,0.2,0,0.3,0.1,0.4c0,0.1,0.1,0.2,0.2,0.2s0.2,0.1,0.2,0.1c0.1,0,0.2,0,0.3,0h5.9
			c1,0,1.8,0.2,2.5,0.5c0.7,0.4,1.2,0.8,1.7,1.3s0.7,1.1,0.9,1.7C40.7,109.6,40.8,110.2,40.8,110.7z"/>
		<path class="st0" d="M60.7,110.7c0,0.7-0.1,1.2-0.2,1.8c-0.2,0.5-0.4,1-0.7,1.4c-0.3,0.4-0.6,0.7-1,1c-0.4,0.3-0.7,0.5-1.1,0.7
			s-0.8,0.3-1.2,0.4c-0.4,0.1-0.8,0.1-1.1,0.1h-6.9c-0.5,0-1.1-0.1-1.7-0.3s-1.2-0.5-1.7-0.9c-0.5-0.4-1-1-1.3-1.7
			c-0.4-0.7-0.5-1.5-0.5-2.5v-5.2c0-1,0.2-1.8,0.5-2.5c0.4-0.7,0.8-1.2,1.3-1.7s1.1-0.7,1.7-0.9c0.6-0.2,1.2-0.3,1.7-0.3h6.9
			c1,0,1.8,0.2,2.5,0.5c0.7,0.4,1.2,0.8,1.7,1.3c0.4,0.5,0.7,1.1,0.9,1.7c0.2,0.6,0.3,1.2,0.3,1.7V110.7z M56.9,105.6
			c0-0.5-0.1-0.9-0.4-1.2c-0.3-0.3-0.6-0.4-1.1-0.4h-6.8c-0.5,0-0.9,0.1-1.2,0.4c-0.3,0.3-0.4,0.6-0.4,1.1v5.2
			c0,0.5,0.1,0.9,0.4,1.1c0.3,0.3,0.6,0.4,1.2,0.4h6.8c0.5,0,0.9-0.1,1.2-0.4c0.3-0.3,0.4-0.6,0.4-1.1V105.6z"/>
		<path class="st0" d="M70.9,116.1h-1.7c-0.5,0-1.1-0.1-1.7-0.3s-1.2-0.5-1.7-0.9c-0.5-0.4-1-1-1.3-1.7c-0.4-0.7-0.5-1.5-0.5-2.5
			V93.6h3.8v17.2c0,0.5,0.1,0.8,0.4,1.1s0.7,0.4,1.1,0.4h1.7V116.1z"/>
		<path class="st0" d="M90.4,114.2c0,0.3,0,0.5-0.1,0.8s-0.2,0.4-0.4,0.6c-0.2,0.2-0.4,0.3-0.6,0.4c-0.2,0.1-0.5,0.1-0.7,0.1h-8.6
			c-0.5,0-1-0.1-1.5-0.2s-1.1-0.3-1.6-0.5c-0.5-0.2-1-0.5-1.5-0.9c-0.5-0.4-0.9-0.8-1.3-1.3s-0.7-1.1-0.9-1.8
			c-0.2-0.7-0.3-1.5-0.3-2.3v-8.8h3.8v8.8c0,0.5,0.1,0.9,0.3,1.3s0.4,0.7,0.7,1c0.3,0.3,0.6,0.5,1,0.7c0.4,0.2,0.8,0.2,1.3,0.2h6.7
			v-12h3.8V114.2z"/>
		<path class="st0" d="M108.4,104.1h-6.6v12h-3.8v-12h-4.9v-3.8h4.9v-5.2h3.8v5.2h6.6V104.1z"/>
		<path class="st0" d="M114.7,97h-3.8v-3.4h3.8V97z M114.7,116.1h-3.8v-15.8h3.8V116.1z"/>
		<path class="st0" d="M135.6,110.7c0,0.7-0.1,1.2-0.2,1.8c-0.2,0.5-0.4,1-0.7,1.4c-0.3,0.4-0.6,0.7-1,1c-0.4,0.3-0.7,0.5-1.1,0.7
			c-0.4,0.2-0.8,0.3-1.2,0.4s-0.8,0.1-1.1,0.1h-6.9c-0.5,0-1.1-0.1-1.7-0.3c-0.6-0.2-1.2-0.5-1.7-0.9c-0.5-0.4-1-1-1.3-1.7
			c-0.4-0.7-0.5-1.5-0.5-2.5v-5.2c0-1,0.2-1.8,0.5-2.5c0.4-0.7,0.8-1.2,1.3-1.7s1.1-0.7,1.7-0.9c0.6-0.2,1.2-0.3,1.7-0.3h6.9
			c1,0,1.8,0.2,2.5,0.5c0.7,0.4,1.2,0.8,1.7,1.3c0.4,0.5,0.7,1.1,0.9,1.7c0.2,0.6,0.3,1.2,0.3,1.7V110.7z M131.8,105.6
			c0-0.5-0.1-0.9-0.4-1.2c-0.3-0.3-0.6-0.4-1.1-0.4h-6.8c-0.5,0-0.9,0.1-1.2,0.4c-0.3,0.3-0.4,0.6-0.4,1.1v5.2
			c0,0.5,0.1,0.9,0.4,1.1c0.3,0.3,0.6,0.4,1.2,0.4h6.8c0.5,0,0.9-0.1,1.2-0.4c0.3-0.3,0.4-0.6,0.4-1.1V105.6z"/>
		<path class="st0" d="M156.4,116.1h-3.8v-8.8c0-0.5-0.1-0.9-0.3-1.3s-0.4-0.7-0.7-1c-0.3-0.3-0.6-0.5-1-0.7
			c-0.4-0.2-0.8-0.2-1.3-0.2h-6.7v12h-3.8v-13.9c0-0.3,0-0.5,0.1-0.7c0.1-0.2,0.2-0.4,0.4-0.6c0.2-0.2,0.4-0.3,0.6-0.4
			c0.2-0.1,0.5-0.1,0.7-0.1h8.6c0.5,0,1,0.1,1.5,0.2c0.5,0.1,1.1,0.3,1.6,0.5s1,0.5,1.5,0.9c0.5,0.4,0.9,0.8,1.3,1.3
			s0.7,1.1,0.9,1.8c0.2,0.7,0.3,1.5,0.3,2.3V116.1z"/>
		<path class="st0" d="M175,110.7c0,0.7-0.1,1.2-0.2,1.8c-0.2,0.5-0.4,1-0.7,1.4s-0.6,0.7-1,1c-0.4,0.3-0.7,0.5-1.1,0.7
			c-0.4,0.2-0.8,0.3-1.2,0.4s-0.8,0.1-1.1,0.1h-10.3v-3.8h10.3c0.5,0,0.9-0.1,1.2-0.4c0.3-0.3,0.4-0.6,0.4-1.1c0-1-0.6-1.5-1.5-1.5
			h-5.9c-0.8,0-1.6-0.1-2.1-0.4s-1.1-0.7-1.4-1.1c-0.4-0.4-0.6-0.9-0.8-1.4c-0.2-0.5-0.2-1-0.2-1.4c0-0.8,0.2-1.6,0.5-2.1
			c0.3-0.6,0.7-1.1,1.1-1.4c0.5-0.4,1-0.6,1.5-0.8c0.5-0.2,1-0.2,1.5-0.2h9.4v3.8h-9.3c-0.2,0-0.3,0-0.5,0.1c-0.1,0-0.2,0.1-0.2,0.2
			c-0.1,0.1-0.1,0.2-0.1,0.2c0,0.1,0,0.2,0,0.2c0,0.2,0,0.3,0.1,0.4c0,0.1,0.1,0.2,0.2,0.2c0.1,0,0.2,0.1,0.2,0.1c0.1,0,0.2,0,0.3,0
			h5.9c1,0,1.8,0.2,2.5,0.5c0.7,0.4,1.2,0.8,1.7,1.3s0.7,1.1,0.9,1.7S175,110.2,175,110.7z"/>
	</g>
</g>
<g>
	<rect y="150" class="st2" width="200" height="40"/>
	<g>
		<g>
			<path class="st3" d="M28.3,165.2l-2.3,9.9c0,0.1-0.1,0.2-0.2,0.3c-0.1,0.1-0.2,0.1-0.4,0.1h-1.6c-0.1,0-0.3,0-0.4-0.1
				c-0.1-0.1-0.2-0.2-0.2-0.3l-1.7-7.2l-1.6,7.2c0,0.1-0.1,0.2-0.2,0.3c-0.1,0.1-0.2,0.1-0.4,0.1h-1.6c-0.1,0-0.3,0-0.4-0.1
				c-0.1-0.1-0.2-0.2-0.2-0.3l-2.3-9.9c0-0.1,0-0.2,0.1-0.3c0.1-0.1,0.2-0.1,0.3-0.1h1.5c0.1,0,0.3,0,0.4,0.1
				c0.1,0.1,0.2,0.2,0.2,0.3l1.3,7.2l1.6-7.2c0-0.1,0.1-0.2,0.2-0.3c0.1-0.1,0.2-0.1,0.4-0.1h1.5c0.1,0,0.3,0,0.4,0.1
				c0.1,0.1,0.2,0.2,0.2,0.3l1.6,7.2l1.2-7.2c0-0.1,0.1-0.2,0.2-0.3c0.1-0.1,0.2-0.1,0.4-0.1H28c0.1,0,0.2,0,0.3,0.1
				C28.4,164.9,28.4,165,28.3,165.2z"/>
		</g>
		<g>
			<path class="st3" d="M36,171.5c0,0.1,0,0.3-0.1,0.4c-0.1,0.1-0.2,0.1-0.4,0.1h-4.4c0,0.2,0,0.5,0.1,0.7c0.1,0.2,0.2,0.4,0.3,0.6
				c0.1,0.2,0.3,0.3,0.6,0.5c0.2,0.1,0.5,0.2,0.8,0.2c0.4,0,0.8-0.1,1.1-0.2c0.3-0.1,0.6-0.2,0.7-0.3c0.1-0.1,0.2-0.1,0.4,0
				c0.1,0.1,0.2,0.1,0.3,0.3l0.4,0.9c0.1,0.1,0.1,0.2,0,0.4c-0.1,0.1-0.1,0.2-0.3,0.3c-0.1,0-0.2,0.1-0.3,0.1
				c-0.2,0.1-0.4,0.1-0.6,0.2s-0.5,0.1-0.8,0.2c-0.3,0-0.6,0.1-1,0.1c-0.8,0-1.4-0.1-1.9-0.4c-0.5-0.3-0.9-0.7-1.2-1.1
				c-0.3-0.4-0.5-0.9-0.6-1.5c-0.1-0.5-0.2-1-0.2-1.5c0-0.4,0.1-0.8,0.2-1.3c0.2-0.5,0.4-0.9,0.7-1.3c0.3-0.4,0.7-0.8,1.1-1
				c0.5-0.3,1-0.4,1.6-0.4c0.7,0,1.3,0.1,1.7,0.4c0.5,0.3,0.8,0.7,1.1,1.1c0.3,0.4,0.5,0.9,0.6,1.3c0.1,0.5,0.2,0.9,0.2,1.2V171.5z
				 M33.8,170.5c0-0.1,0-0.3-0.1-0.4c-0.1-0.2-0.2-0.4-0.3-0.5c-0.1-0.2-0.2-0.3-0.4-0.5c-0.2-0.1-0.3-0.2-0.6-0.2
				c-0.2,0-0.4,0.1-0.6,0.2c-0.2,0.1-0.3,0.3-0.4,0.4c-0.1,0.2-0.2,0.4-0.2,0.5c-0.1,0.2-0.1,0.4-0.1,0.5H33.8z"/>
		</g>
		<g>
			<path class="st3" d="M44.9,171.2c0,0.7-0.1,1.3-0.3,1.8c-0.2,0.6-0.5,1-0.8,1.4c-0.4,0.4-0.8,0.7-1.3,0.9
				c-0.5,0.2-1.1,0.3-1.7,0.3c-0.2,0-0.5,0-0.8,0c-0.3,0-0.6-0.1-0.8-0.1c-0.3,0-0.5-0.1-0.7-0.1c-0.2,0-0.4-0.1-0.5-0.1
				c-0.1,0-0.2-0.1-0.3-0.2c-0.1-0.1-0.1-0.2-0.1-0.3v-10.4c0-0.1,0-0.3,0.1-0.4c0.1-0.1,0.2-0.1,0.4-0.1h1.3c0.1,0,0.3,0,0.4,0.1
				c0.1,0.1,0.1,0.2,0.1,0.4v3.1c0,0,0.1-0.1,0.2-0.1c0.1,0,0.2-0.1,0.3-0.1c0.1,0,0.3-0.1,0.4-0.1c0.1,0,0.3,0,0.4,0
				c0.6,0,1.2,0.1,1.7,0.3c0.5,0.2,0.9,0.5,1.2,0.9c0.3,0.4,0.6,0.8,0.7,1.3C44.8,170.2,44.9,170.7,44.9,171.2z M42.5,171.2
				c0-0.2,0-0.5-0.1-0.7c-0.1-0.3-0.2-0.5-0.3-0.7c-0.1-0.2-0.3-0.4-0.5-0.5c-0.2-0.1-0.4-0.2-0.6-0.2c-0.2,0-0.4,0-0.7,0.1
				c-0.3,0.1-0.5,0.1-0.6,0.2v4.3c0.1,0,0.2,0.1,0.4,0.1c0.2,0,0.4,0,0.5,0c0.3,0,0.5-0.1,0.8-0.2c0.2-0.2,0.4-0.4,0.5-0.6
				c0.1-0.3,0.3-0.5,0.3-0.8C42.5,171.8,42.5,171.5,42.5,171.2z"/>
		</g>
		<g>
			<path class="st3" d="M59.6,169.9c0,0.8-0.1,1.6-0.3,2.3c-0.2,0.7-0.6,1.3-1,1.8c-0.4,0.5-1,0.9-1.6,1.2c-0.6,0.3-1.3,0.4-2.1,0.4
				h-3c-0.1,0-0.3,0-0.4-0.1c-0.1-0.1-0.1-0.2-0.1-0.4v-9.9c0-0.1,0-0.3,0.1-0.4c0.1-0.1,0.2-0.1,0.4-0.1h3.1c0.8,0,1.4,0.1,2.1,0.4
				c0.6,0.3,1.1,0.6,1.6,1.1c0.4,0.5,0.8,1,1,1.6C59.5,168.4,59.6,169.1,59.6,169.9z M57.2,169.9c0-0.4,0-0.8-0.1-1.2
				c-0.1-0.4-0.2-0.8-0.4-1.1c-0.2-0.3-0.5-0.5-0.8-0.7c-0.3-0.2-0.7-0.3-1.1-0.3h-1.2v7.1h1c0.4,0,0.8-0.1,1.1-0.3
				c0.3-0.2,0.6-0.4,0.8-0.8c0.2-0.3,0.4-0.7,0.5-1.2C57.1,171,57.2,170.4,57.2,169.9z"/>
		</g>
		<g>
			<path class="st3" d="M68.2,171.5c0,0.1,0,0.3-0.1,0.4c-0.1,0.1-0.2,0.1-0.4,0.1h-4.4c0,0.2,0,0.5,0.1,0.7
				c0.1,0.2,0.2,0.4,0.3,0.6c0.1,0.2,0.3,0.3,0.6,0.5c0.2,0.1,0.5,0.2,0.8,0.2c0.4,0,0.8-0.1,1.1-0.2c0.3-0.1,0.6-0.2,0.7-0.3
				c0.1-0.1,0.2-0.1,0.4,0c0.1,0.1,0.2,0.1,0.3,0.3l0.4,0.9c0.1,0.1,0.1,0.2,0,0.4c-0.1,0.1-0.1,0.2-0.3,0.3c-0.1,0-0.2,0.1-0.3,0.1
				c-0.2,0.1-0.4,0.1-0.6,0.2c-0.2,0.1-0.5,0.1-0.8,0.2c-0.3,0-0.6,0.1-1,0.1c-0.8,0-1.4-0.1-1.9-0.4c-0.5-0.3-0.9-0.7-1.2-1.1
				c-0.3-0.4-0.5-0.9-0.6-1.5s-0.2-1-0.2-1.5c0-0.4,0.1-0.8,0.2-1.3c0.2-0.5,0.4-0.9,0.7-1.3c0.3-0.4,0.7-0.8,1.1-1
				c0.5-0.3,1-0.4,1.6-0.4c0.7,0,1.3,0.1,1.7,0.4c0.5,0.3,0.8,0.7,1.1,1.1c0.3,0.4,0.5,0.9,0.6,1.3s0.2,0.9,0.2,1.2V171.5z
				 M66,170.5c0-0.1,0-0.3-0.1-0.4c-0.1-0.2-0.2-0.4-0.3-0.5c-0.1-0.2-0.2-0.3-0.4-0.5c-0.2-0.1-0.3-0.2-0.6-0.2
				c-0.2,0-0.4,0.1-0.6,0.2c-0.2,0.1-0.3,0.3-0.4,0.4c-0.1,0.2-0.2,0.4-0.2,0.5c-0.1,0.2-0.1,0.4-0.1,0.5H66z"/>
		</g>
		<g>
			<path class="st3" d="M76.4,167.9l-2.3,7.2c0,0.1-0.1,0.2-0.2,0.3c-0.1,0.1-0.2,0.1-0.4,0.1h-1.7c-0.1,0-0.3,0-0.4-0.1
				c-0.1-0.1-0.2-0.2-0.2-0.3l-2.3-7.2c0-0.1,0-0.2,0.1-0.3c0.1-0.1,0.2-0.1,0.3-0.1h1.5c0.1,0,0.3,0,0.4,0.1
				c0.1,0.1,0.2,0.2,0.2,0.3l1.3,5.3l1.3-5.3c0-0.1,0.1-0.2,0.2-0.3c0.1-0.1,0.2-0.1,0.4-0.1H76c0.1,0,0.3,0,0.3,0.1
				C76.4,167.6,76.4,167.7,76.4,167.9z"/>
		</g>
		<g>
			<path class="st3" d="M84.4,171.5c0,0.1,0,0.3-0.1,0.4c-0.1,0.1-0.2,0.1-0.4,0.1h-4.4c0,0.2,0,0.5,0.1,0.7
				c0.1,0.2,0.2,0.4,0.3,0.6c0.1,0.2,0.3,0.3,0.6,0.5c0.2,0.1,0.5,0.2,0.8,0.2c0.4,0,0.8-0.1,1.1-0.2c0.3-0.1,0.6-0.2,0.7-0.3
				c0.1-0.1,0.2-0.1,0.4,0c0.1,0.1,0.2,0.1,0.3,0.3l0.4,0.9c0.1,0.1,0.1,0.2,0,0.4c-0.1,0.1-0.1,0.2-0.3,0.3c-0.1,0-0.2,0.1-0.3,0.1
				c-0.2,0.1-0.4,0.1-0.6,0.2c-0.2,0.1-0.5,0.1-0.8,0.2c-0.3,0-0.6,0.1-1,0.1c-0.8,0-1.4-0.1-1.9-0.4c-0.5-0.3-0.9-0.7-1.2-1.1
				c-0.3-0.4-0.5-0.9-0.6-1.5c-0.1-0.5-0.2-1-0.2-1.5c0-0.4,0.1-0.8,0.2-1.3c0.2-0.5,0.4-0.9,0.7-1.3c0.3-0.4,0.7-0.8,1.1-1
				c0.5-0.3,1-0.4,1.6-0.4c0.7,0,1.3,0.1,1.7,0.4c0.5,0.3,0.8,0.7,1.1,1.1c0.3,0.4,0.5,0.9,0.6,1.3c0.1,0.5,0.2,0.9,0.2,1.2V171.5z
				 M82.2,170.5c0-0.1,0-0.3-0.1-0.4c-0.1-0.2-0.2-0.4-0.3-0.5c-0.1-0.2-0.2-0.3-0.4-0.5c-0.2-0.1-0.3-0.2-0.6-0.2
				c-0.2,0-0.4,0.1-0.6,0.2c-0.2,0.1-0.3,0.3-0.4,0.4c-0.1,0.2-0.2,0.4-0.2,0.5c-0.1,0.2-0.1,0.4-0.1,0.5H82.2z"/>
		</g>
		<g>
			<path class="st3" d="M89.8,174.9c0.1,0.1,0.1,0.2,0,0.4c-0.1,0.1-0.1,0.2-0.3,0.3c-0.1,0-0.2,0.1-0.4,0.1
				c-0.2,0.1-0.5,0.1-0.7,0.1c-0.5,0-0.9-0.1-1.2-0.2c-0.3-0.2-0.6-0.4-0.7-0.6c-0.2-0.2-0.3-0.5-0.4-0.8c-0.1-0.3-0.1-0.6-0.1-0.9
				v-8.7c0-0.1,0-0.3,0.1-0.4c0.1-0.1,0.2-0.1,0.4-0.1h1.3c0.1,0,0.3,0,0.4,0.1c0.1,0.1,0.1,0.2,0.1,0.4v8.6c0,0.2,0,0.4,0.1,0.5
				s0.1,0.2,0.3,0.2c0.1,0,0.1,0,0.2,0c0.1-0.1,0.2-0.1,0.4,0c0.1,0.1,0.2,0.1,0.3,0.3L89.8,174.9z"/>
		</g>
		<g>
			<path class="st3" d="M98,171.2c0,0.4-0.1,0.8-0.2,1.3s-0.3,1-0.6,1.5c-0.3,0.5-0.7,0.9-1.2,1.2c-0.5,0.3-1.1,0.5-1.9,0.5
				c-0.8,0-1.4-0.2-1.9-0.5c-0.5-0.3-0.9-0.7-1.2-1.2c-0.3-0.5-0.5-1-0.6-1.5c-0.1-0.5-0.2-1-0.2-1.4c0-0.4,0.1-0.9,0.2-1.3
				c0.2-0.5,0.4-0.9,0.7-1.3c0.3-0.4,0.7-0.7,1.2-1c0.5-0.3,1-0.4,1.7-0.4c0.7,0,1.3,0.1,1.8,0.4c0.5,0.3,0.9,0.6,1.2,1
				c0.3,0.4,0.5,0.9,0.7,1.3C98,170.4,98,170.9,98,171.2z M95.7,171.2c0-0.2,0-0.4-0.1-0.7c0-0.2-0.1-0.5-0.2-0.7s-0.3-0.4-0.5-0.6
				c-0.2-0.2-0.4-0.2-0.7-0.2c-0.3,0-0.5,0.1-0.7,0.2c-0.2,0.1-0.3,0.3-0.4,0.5c-0.1,0.2-0.2,0.5-0.2,0.7c0,0.3-0.1,0.5-0.1,0.7
				c0,0.2,0,0.5,0.1,0.8c0,0.3,0.1,0.6,0.2,0.9c0.1,0.3,0.2,0.5,0.4,0.7c0.2,0.2,0.4,0.3,0.7,0.3c0.3,0,0.6-0.1,0.7-0.3
				c0.2-0.2,0.3-0.4,0.4-0.7c0.1-0.3,0.2-0.5,0.2-0.8C95.6,171.8,95.7,171.5,95.7,171.2z"/>
		</g>
		<g>
			<path class="st3" d="M107,171.2c0,0.6-0.1,1.2-0.2,1.8c-0.2,0.5-0.4,1-0.7,1.4c-0.3,0.4-0.7,0.7-1.2,1c-0.5,0.2-1,0.4-1.6,0.4
				c-0.1,0-0.2,0-0.4,0c-0.1,0-0.3-0.1-0.4-0.1c-0.1,0-0.2-0.1-0.3-0.1c-0.1,0-0.2-0.1-0.2-0.1v3.3c0,0.1,0,0.3-0.1,0.4
				c-0.1,0.1-0.2,0.1-0.4,0.1h-1.3c-0.1,0-0.3,0-0.4-0.1c-0.1-0.1-0.1-0.2-0.1-0.4V168c0-0.1,0-0.2,0.1-0.3c0.1-0.1,0.2-0.1,0.3-0.2
				c0.1,0,0.2-0.1,0.4-0.1c0.2,0,0.5-0.1,0.7-0.1c0.3,0,0.6-0.1,0.8-0.1c0.3,0,0.6,0,0.8,0c0.6,0,1.2,0.1,1.7,0.4
				c0.5,0.2,0.9,0.6,1.3,0.9c0.4,0.4,0.6,0.8,0.8,1.3C106.9,170.3,107,170.8,107,171.2z M104.7,171.2c0-0.3,0-0.5-0.1-0.8
				c-0.1-0.3-0.2-0.5-0.3-0.7c-0.1-0.2-0.3-0.4-0.5-0.5c-0.2-0.1-0.5-0.2-0.8-0.2c-0.1,0-0.3,0-0.5,0c-0.2,0-0.4,0.1-0.4,0.1v4.3
				c0.1,0.1,0.3,0.1,0.6,0.2c0.3,0.1,0.5,0.1,0.7,0.1c0.2,0,0.4-0.1,0.6-0.2c0.2-0.1,0.3-0.3,0.5-0.6c0.1-0.2,0.2-0.5,0.3-0.8
				C104.6,171.9,104.7,171.6,104.7,171.2z"/>
		</g>
		<g>
			<path class="st3" d="M119.9,175.1c0,0.1,0,0.3-0.1,0.4c-0.1,0.1-0.2,0.1-0.4,0.1h-1.3c-0.1,0-0.3,0-0.4-0.1
				c-0.1-0.1-0.1-0.2-0.1-0.4v-4.8c0-0.1,0-0.3-0.1-0.4c0-0.2-0.1-0.3-0.2-0.4c-0.1-0.1-0.2-0.2-0.4-0.3c-0.2-0.1-0.3-0.1-0.6-0.1
				c-0.1,0-0.1,0-0.3,0c-0.1,0-0.2,0-0.3,0c-0.1,0-0.2,0-0.3,0c-0.1,0-0.2,0-0.2,0c0.1,0.2,0.1,0.3,0.1,0.5c0,0.2,0,0.3,0,0.5v5
				c0,0.1,0,0.3-0.1,0.4c-0.1,0.1-0.2,0.1-0.4,0.1h-1.3c-0.1,0-0.3,0-0.4-0.1c-0.1-0.1-0.1-0.2-0.1-0.4v-4.8c0-0.1,0-0.3-0.1-0.4
				c0-0.2-0.1-0.3-0.2-0.4c-0.1-0.1-0.2-0.2-0.4-0.3c-0.2-0.1-0.3-0.1-0.6-0.1c-0.1,0-0.3,0-0.5,0c-0.2,0-0.4,0.1-0.4,0.1v5.9
				c0,0.1,0,0.3-0.1,0.4c-0.1,0.1-0.2,0.1-0.4,0.1h-1.3c-0.1,0-0.3,0-0.4-0.1c-0.1-0.1-0.1-0.2-0.1-0.4v-7c0-0.1,0-0.2,0.1-0.3
				c0.1-0.1,0.2-0.1,0.3-0.2c0.1,0,0.3-0.1,0.5-0.1c0.2,0,0.5-0.1,0.7-0.1c0.3,0,0.5-0.1,0.8-0.1c0.3,0,0.5,0,0.8,0
				c0.5,0,0.8,0,1.2,0.1c0.3,0.1,0.6,0.2,0.7,0.3c0.1,0,0.3-0.1,0.5-0.1c0.2,0,0.4-0.1,0.7-0.1c0.3,0,0.5-0.1,0.8-0.1
				c0.3,0,0.5,0,0.7,0c0.6,0,1.1,0.1,1.5,0.2c0.4,0.2,0.8,0.4,1.1,0.6s0.5,0.6,0.7,0.9c0.2,0.4,0.2,0.7,0.2,1.2V175.1z"/>
		</g>
		<g>
			<path class="st3" d="M128.7,171.5c0,0.1,0,0.3-0.1,0.4c-0.1,0.1-0.2,0.1-0.4,0.1h-4.4c0,0.2,0,0.5,0.1,0.7
				c0.1,0.2,0.2,0.4,0.3,0.6c0.1,0.2,0.3,0.3,0.6,0.5c0.2,0.1,0.5,0.2,0.8,0.2c0.4,0,0.8-0.1,1.1-0.2c0.3-0.1,0.6-0.2,0.7-0.3
				c0.1-0.1,0.2-0.1,0.4,0c0.1,0.1,0.2,0.1,0.3,0.3l0.4,0.9c0.1,0.1,0.1,0.2,0,0.4c-0.1,0.1-0.1,0.2-0.3,0.3c-0.1,0-0.2,0.1-0.3,0.1
				c-0.2,0.1-0.4,0.1-0.6,0.2c-0.2,0.1-0.5,0.1-0.8,0.2c-0.3,0-0.6,0.1-1,0.1c-0.8,0-1.4-0.1-1.9-0.4c-0.5-0.3-0.9-0.7-1.2-1.1
				c-0.3-0.4-0.5-0.9-0.6-1.5c-0.1-0.5-0.2-1-0.2-1.5c0-0.4,0.1-0.8,0.2-1.3c0.2-0.5,0.4-0.9,0.7-1.3c0.3-0.4,0.7-0.8,1.1-1
				c0.5-0.3,1-0.4,1.6-0.4c0.7,0,1.3,0.1,1.7,0.4c0.5,0.3,0.8,0.7,1.1,1.1c0.3,0.4,0.5,0.9,0.6,1.3s0.2,0.9,0.2,1.2V171.5z
				 M126.5,170.5c0-0.1,0-0.3-0.1-0.4c-0.1-0.2-0.2-0.4-0.3-0.5c-0.1-0.2-0.2-0.3-0.4-0.5c-0.2-0.1-0.3-0.2-0.6-0.2
				c-0.2,0-0.4,0.1-0.6,0.2c-0.2,0.1-0.3,0.3-0.4,0.4c-0.1,0.2-0.2,0.4-0.2,0.5c-0.1,0.2-0.1,0.4-0.1,0.5H126.5z"/>
		</g>
		<g>
			<path class="st3" d="M137.2,175.1c0,0.1,0,0.3-0.1,0.4c-0.1,0.1-0.2,0.1-0.4,0.1h-1.3c-0.1,0-0.3,0-0.4-0.1
				c-0.1-0.1-0.1-0.2-0.1-0.4v-4.8c0-0.3-0.1-0.6-0.4-0.8c-0.2-0.3-0.6-0.4-1-0.4c-0.1,0-0.3,0-0.5,0c-0.2,0-0.4,0.1-0.4,0.1v5.9
				c0,0.1,0,0.3-0.1,0.4c-0.1,0.1-0.2,0.1-0.4,0.1h-1.3c-0.1,0-0.3,0-0.4-0.1c-0.1-0.1-0.1-0.2-0.1-0.4v-7c0-0.1,0-0.2,0.1-0.3
				c0.1-0.1,0.2-0.1,0.3-0.2c0.1,0,0.3-0.1,0.5-0.1c0.2,0,0.5-0.1,0.7-0.1c0.3,0,0.5-0.1,0.8-0.1c0.3,0,0.5,0,0.8,0
				c0.6,0,1.1,0.1,1.6,0.2c0.5,0.1,0.9,0.4,1.2,0.6c0.3,0.3,0.6,0.6,0.7,0.9c0.2,0.4,0.3,0.7,0.3,1.2V175.1z"/>
		</g>
		<g>
			<path class="st3" d="M143.9,174.9c0.1,0.1,0.1,0.2,0,0.4c-0.1,0.1-0.1,0.2-0.3,0.3c-0.1,0-0.3,0.1-0.6,0.1
				c-0.3,0.1-0.5,0.1-0.8,0.1c-0.5,0-0.8-0.1-1.2-0.2c-0.3-0.1-0.6-0.3-0.8-0.5c-0.2-0.2-0.3-0.5-0.4-0.7s-0.1-0.6-0.1-0.9v-4.2
				h-0.9c-0.1,0-0.3,0-0.4-0.1c-0.1-0.1-0.1-0.2-0.1-0.4v-0.9c0-0.1,0-0.3,0.1-0.4c0.1-0.1,0.2-0.1,0.4-0.1h0.9v-1.7
				c0-0.1,0-0.3,0.1-0.4c0.1-0.1,0.2-0.1,0.4-0.1h1.3c0.1,0,0.3,0,0.4,0.1c0.1,0.1,0.1,0.2,0.1,0.4v1.7h1.3c0.1,0,0.3,0,0.4,0.1
				c0.1,0.1,0.1,0.2,0.1,0.4v0.9c0,0.1,0,0.3-0.1,0.4c-0.1,0.1-0.2,0.1-0.4,0.1h-1.3v4c0,0,0,0.1,0,0.2s0,0.1,0.1,0.2
				c0,0.1,0.1,0.1,0.1,0.2s0.1,0.1,0.3,0.1c0.1,0,0.1,0,0.2,0c0.1,0,0.1,0,0.2-0.1c0.1-0.1,0.2-0.1,0.4,0c0.1,0.1,0.2,0.1,0.3,0.3
				L143.9,174.9z"/>
		</g>
		<g>
			<path class="st3" d="M156.8,166.2c0,0.1,0,0.3-0.1,0.4c-0.1,0.1-0.2,0.1-0.4,0.1h-2.2v8.4c0,0.1,0,0.3-0.1,0.4
				c-0.1,0.1-0.2,0.1-0.4,0.1h-1.4c-0.1,0-0.3,0-0.4-0.1c-0.1-0.1-0.1-0.2-0.1-0.4v-8.4h-2.2c-0.1,0-0.3,0-0.4-0.1
				c-0.1-0.1-0.1-0.2-0.1-0.4v-1c0-0.1,0-0.3,0.1-0.4c0.1-0.1,0.2-0.1,0.4-0.1h6.8c0.1,0,0.3,0,0.4,0.1c0.1,0.1,0.1,0.2,0.1,0.4
				V166.2z"/>
		</g>
		<g>
			<path class="st3" d="M163.8,171.5c0,0.1,0,0.3-0.1,0.4c-0.1,0.1-0.2,0.1-0.4,0.1h-4.4c0,0.2,0,0.5,0.1,0.7
				c0.1,0.2,0.2,0.4,0.3,0.6c0.1,0.2,0.3,0.3,0.6,0.5c0.2,0.1,0.5,0.2,0.8,0.2c0.4,0,0.8-0.1,1.1-0.2c0.3-0.1,0.6-0.2,0.7-0.3
				c0.1-0.1,0.2-0.1,0.4,0c0.1,0.1,0.2,0.1,0.3,0.3l0.4,0.9c0.1,0.1,0.1,0.2,0,0.4c-0.1,0.1-0.1,0.2-0.3,0.3c-0.1,0-0.2,0.1-0.3,0.1
				s-0.4,0.1-0.6,0.2c-0.2,0.1-0.5,0.1-0.8,0.2c-0.3,0-0.6,0.1-1,0.1c-0.8,0-1.4-0.1-1.9-0.4c-0.5-0.3-0.9-0.7-1.2-1.1
				c-0.3-0.4-0.5-0.9-0.6-1.5c-0.1-0.5-0.2-1-0.2-1.5c0-0.4,0.1-0.8,0.2-1.3c0.2-0.5,0.4-0.9,0.7-1.3c0.3-0.4,0.7-0.8,1.1-1
				c0.5-0.3,1-0.4,1.6-0.4c0.7,0,1.3,0.1,1.7,0.4c0.5,0.3,0.8,0.7,1.1,1.1c0.3,0.4,0.5,0.9,0.6,1.3s0.2,0.9,0.2,1.2V171.5z
				 M161.6,170.5c0-0.1,0-0.3-0.1-0.4c-0.1-0.2-0.2-0.4-0.3-0.5c-0.1-0.2-0.2-0.3-0.4-0.5c-0.2-0.1-0.3-0.2-0.6-0.2
				c-0.2,0-0.4,0.1-0.6,0.2c-0.2,0.1-0.3,0.3-0.4,0.4c-0.1,0.2-0.2,0.4-0.2,0.5c-0.1,0.2-0.1,0.4-0.1,0.5H161.6z"/>
		</g>
		<g>
			<path class="st3" d="M171.7,174.9c0,0.1,0,0.2-0.1,0.3c-0.1,0.1-0.2,0.1-0.3,0.2c-0.1,0-0.2,0.1-0.5,0.1c-0.2,0-0.5,0.1-0.7,0.1
				c-0.3,0-0.6,0.1-0.8,0.1c-0.3,0-0.6,0-0.8,0c-1.2,0-2.1-0.2-2.7-0.7c-0.6-0.4-0.9-1-0.9-1.6c0-0.4,0.1-0.7,0.3-1.1
				c0.2-0.3,0.5-0.6,0.8-0.9c0.3-0.2,0.7-0.5,1.1-0.6c0.4-0.2,0.8-0.3,1.2-0.4l1.3-0.3v-0.1c0-0.3-0.1-0.6-0.3-0.8
				c-0.2-0.3-0.6-0.4-1-0.4c-0.2,0-0.3,0-0.5,0.1c-0.2,0-0.3,0.1-0.5,0.2c-0.2,0.1-0.3,0.1-0.4,0.2c-0.1,0.1-0.2,0.1-0.3,0.1
				c-0.1,0.1-0.2,0.1-0.4,0c-0.1,0-0.2-0.1-0.3-0.2l-0.3-0.7c-0.1-0.1-0.1-0.2,0-0.4c0-0.1,0.1-0.2,0.2-0.3c0.1,0,0.2-0.1,0.4-0.2
				c0.2-0.1,0.4-0.2,0.7-0.2c0.3-0.1,0.5-0.1,0.9-0.2c0.3-0.1,0.7-0.1,1-0.1c0.5,0,0.9,0.1,1.3,0.2c0.4,0.1,0.7,0.3,1,0.6
				c0.3,0.2,0.5,0.5,0.6,0.9c0.1,0.3,0.2,0.7,0.2,1.1V174.9z M169.5,173.9v-2.1l-0.9,0.2c-0.5,0.1-0.9,0.3-1.1,0.5
				c-0.3,0.2-0.4,0.5-0.4,0.7c0,0.3,0.1,0.4,0.4,0.6c0.3,0.1,0.6,0.2,1,0.2c0.1,0,0.1,0,0.3,0c0.1,0,0.2,0,0.3,0s0.2,0,0.3,0
				C169.3,173.9,169.4,173.9,169.5,173.9z"/>
		</g>
		<g>
			<path class="st3" d="M185,175.1c0,0.1,0,0.3-0.1,0.4c-0.1,0.1-0.2,0.1-0.4,0.1h-1.3c-0.1,0-0.3,0-0.4-0.1
				c-0.1-0.1-0.1-0.2-0.1-0.4v-4.8c0-0.1,0-0.3-0.1-0.4c0-0.2-0.1-0.3-0.2-0.4c-0.1-0.1-0.2-0.2-0.4-0.3c-0.2-0.1-0.3-0.1-0.6-0.1
				c-0.1,0-0.1,0-0.3,0c-0.1,0-0.2,0-0.3,0c-0.1,0-0.2,0-0.3,0c-0.1,0-0.2,0-0.2,0c0.1,0.2,0.1,0.3,0.1,0.5c0,0.2,0,0.3,0,0.5v5
				c0,0.1,0,0.3-0.1,0.4c-0.1,0.1-0.2,0.1-0.4,0.1h-1.3c-0.1,0-0.3,0-0.4-0.1c-0.1-0.1-0.1-0.2-0.1-0.4v-4.8c0-0.1,0-0.3-0.1-0.4
				c0-0.2-0.1-0.3-0.2-0.4s-0.2-0.2-0.4-0.3c-0.2-0.1-0.3-0.1-0.6-0.1c-0.1,0-0.3,0-0.5,0c-0.2,0-0.4,0.1-0.4,0.1v5.9
				c0,0.1,0,0.3-0.1,0.4c-0.1,0.1-0.2,0.1-0.4,0.1h-1.3c-0.1,0-0.3,0-0.4-0.1c-0.1-0.1-0.1-0.2-0.1-0.4v-7c0-0.1,0-0.2,0.1-0.3
				c0.1-0.1,0.2-0.1,0.3-0.2c0.1,0,0.3-0.1,0.5-0.1c0.2,0,0.5-0.1,0.7-0.1c0.3,0,0.5-0.1,0.8-0.1c0.3,0,0.5,0,0.8,0
				c0.5,0,0.8,0,1.2,0.1c0.3,0.1,0.6,0.2,0.7,0.3c0.1,0,0.3-0.1,0.5-0.1c0.2,0,0.4-0.1,0.7-0.1c0.3,0,0.5-0.1,0.8-0.1
				c0.3,0,0.5,0,0.7,0c0.6,0,1.1,0.1,1.5,0.2s0.8,0.4,1.1,0.6c0.3,0.3,0.5,0.6,0.7,0.9c0.2,0.4,0.2,0.7,0.2,1.2V175.1z"/>
		</g>
	</g>
</g>
</svg>
