<?xml version="1.0" encoding="utf-8"?>
<!-- Generator: Adobe Illustrator 28.1.0, SVG Export Plug-In . SVG Version: 6.00 Build 0)  -->
<svg version="1.1" id="Layer_1" xmlns="http://www.w3.org/2000/svg" xmlns:xlink="http://www.w3.org/1999/xlink" x="0px" y="0px"
	 viewBox="0 0 200 200" style="enable-background:new 0 0 200 200;" xml:space="preserve">
<style type="text/css">
	.st0{fill:#F4F9F1;}
	.st1{fill:#BE5F00;}
	.st2{fill:#E69132;}
	.st3{fill:#91C378;}
</style>
<g>
	<g>
		<rect y="160" class="st0" width="200" height="40"/>
	</g>
	<g>
		<path class="st1" d="M199,1v148H1V1H199 M200,0H0v150h200V0L200,0z"/>
	</g>
	<g>
		<g>
			<path class="st2" d="M28,86.9H15V15h13V86.9z"/>
			<path class="st2" d="M107.7,86.9h-47c-1.2,0-2.5-0.1-3.9-0.4c-1.4-0.3-2.8-0.7-4.1-1.3c-1.4-0.6-2.6-1.4-3.9-2.3
				c-1.2-1-2.3-2.1-3.3-3.5c-1-1.4-1.7-2.9-2.3-4.7c-0.6-1.8-0.9-3.8-0.9-6V33.3c0-1.2,0.1-2.5,0.4-3.9c0.3-1.4,0.7-2.8,1.3-4.1
				c0.6-1.4,1.4-2.6,2.4-3.9c1-1.2,2.1-2.3,3.5-3.3c1.4-1,2.9-1.7,4.7-2.3c1.8-0.6,3.8-0.9,6-0.9h47v13h-47c-1.7,0-3,0.5-3.9,1.4
				c-0.9,0.9-1.4,2.2-1.4,4v35.2c0,1.7,0.5,3,1.4,3.9c0.9,0.9,2.2,1.4,3.9,1.4h47V86.9z"/>
			<path class="st2" d="M185,28h-28.7v58.9h-13V28h-28.8V15H185V28z"/>
		</g>
		<g>
			<path class="st1" d="M32.9,112.2c0,0.7-0.1,1.4-0.3,2c-0.2,0.6-0.4,1.1-0.7,1.6c-0.3,0.4-0.7,0.8-1.1,1.1
				c-0.4,0.3-0.8,0.6-1.3,0.8c-0.4,0.2-0.9,0.3-1.4,0.4c-0.5,0.1-0.9,0.1-1.3,0.1H15.2v-4.3h11.6c0.6,0,1-0.1,1.3-0.4
				s0.4-0.7,0.4-1.3c-0.1-1.2-0.6-1.7-1.7-1.7h-6.7c-1,0-1.8-0.2-2.4-0.5c-0.7-0.3-1.2-0.7-1.6-1.2c-0.4-0.5-0.7-1-0.9-1.6
				S15,106,15,105.5c0-1,0.2-1.8,0.5-2.4c0.3-0.7,0.8-1.2,1.3-1.6c0.5-0.4,1.1-0.7,1.7-0.9s1.2-0.3,1.7-0.3h10.6v4.3H20.2
				c-0.2,0-0.4,0-0.5,0.1c-0.1,0-0.2,0.1-0.3,0.2c-0.1,0.1-0.1,0.2-0.1,0.3c0,0.1,0,0.2,0,0.3c0,0.2,0,0.3,0.1,0.4
				c0.1,0.1,0.1,0.2,0.2,0.2s0.2,0.1,0.3,0.1s0.2,0,0.3,0h6.7c1.1,0,2,0.2,2.8,0.6c0.8,0.4,1.4,0.9,1.9,1.5c0.5,0.6,0.8,1.3,1,2
				C32.8,110.9,32.9,111.6,32.9,112.2z"/>
			<path class="st1" d="M55.5,112.2c0,0.7-0.1,1.4-0.3,2c-0.2,0.6-0.4,1.1-0.7,1.6c-0.3,0.4-0.7,0.8-1.1,1.1
				c-0.4,0.3-0.8,0.6-1.3,0.8c-0.4,0.2-0.9,0.3-1.4,0.4c-0.5,0.1-0.9,0.1-1.3,0.1h-7.8c-0.6,0-1.2-0.1-2-0.3s-1.4-0.6-2-1
				s-1.1-1.1-1.5-1.9s-0.6-1.7-0.6-2.8v-5.8c0-1.1,0.2-2,0.6-2.8c0.4-0.8,0.9-1.4,1.5-1.9c0.6-0.5,1.3-0.8,2-1s1.4-0.3,2-0.3h7.8
				c1.1,0,2,0.2,2.8,0.6c0.8,0.4,1.4,0.9,1.9,1.5c0.5,0.6,0.8,1.3,1,2c0.2,0.7,0.3,1.4,0.3,2V112.2z M51.2,106.4
				c0-0.6-0.1-1-0.4-1.3c-0.3-0.3-0.7-0.4-1.3-0.4h-7.7c-0.6,0-1,0.1-1.3,0.4c-0.3,0.3-0.4,0.7-0.4,1.3v5.8c0,0.6,0.1,1,0.4,1.3
				c0.3,0.3,0.7,0.4,1.3,0.4h7.7c0.6,0,1-0.1,1.3-0.4s0.4-0.7,0.4-1.3V106.4z"/>
			<path class="st1" d="M67,118.2h-1.9c-0.6,0-1.3-0.1-2-0.3c-0.7-0.2-1.4-0.6-2-1c-0.6-0.5-1.1-1.1-1.5-1.9s-0.6-1.7-0.6-2.8V92.7
				h4.3v19.5c0,0.5,0.2,1,0.5,1.3c0.3,0.3,0.7,0.5,1.2,0.5H67V118.2z"/>
			<path class="st1" d="M89.1,116.1c0,0.3-0.1,0.6-0.2,0.9c-0.1,0.3-0.3,0.5-0.5,0.7c-0.2,0.2-0.4,0.3-0.7,0.5
				c-0.3,0.1-0.5,0.2-0.8,0.2h-9.8c-0.5,0-1.1-0.1-1.7-0.2s-1.2-0.3-1.8-0.6s-1.2-0.6-1.7-1c-0.5-0.4-1-0.9-1.4-1.5
				c-0.4-0.6-0.7-1.3-1-2c-0.2-0.8-0.4-1.6-0.4-2.6v-10h4.3v10c0,0.6,0.1,1.1,0.3,1.5c0.2,0.4,0.5,0.8,0.8,1.2
				c0.3,0.3,0.7,0.6,1.2,0.7c0.4,0.2,0.9,0.3,1.5,0.3h7.5v-13.6h4.3V116.1z"/>
			<path class="st1" d="M109.5,104.6H102v13.6h-4.4v-13.6H92v-4.3h5.6v-5.9h4.4v5.9h7.5V104.6z"/>
			<path class="st1" d="M116.7,96.6h-4.3v-3.9h4.3V96.6z M116.7,118.2h-4.3v-17.9h4.3V118.2z"/>
			<path class="st1" d="M140.3,112.2c0,0.7-0.1,1.4-0.3,2c-0.2,0.6-0.4,1.1-0.7,1.6c-0.3,0.4-0.7,0.8-1.1,1.1s-0.8,0.6-1.3,0.8
				c-0.4,0.2-0.9,0.3-1.4,0.4s-0.9,0.1-1.3,0.1h-7.8c-0.6,0-1.2-0.1-2-0.3c-0.7-0.2-1.4-0.6-2-1s-1.1-1.1-1.5-1.9s-0.6-1.7-0.6-2.8
				v-5.8c0-1.1,0.2-2,0.6-2.8c0.4-0.8,0.9-1.4,1.5-1.9c0.6-0.5,1.3-0.8,2-1c0.7-0.2,1.4-0.3,2-0.3h7.8c1.1,0,2,0.2,2.8,0.6
				c0.8,0.4,1.4,0.9,1.9,1.5c0.5,0.6,0.8,1.3,1,2s0.3,1.4,0.3,2V112.2z M136,106.4c0-0.6-0.1-1-0.4-1.3c-0.3-0.3-0.7-0.4-1.3-0.4
				h-7.7c-0.6,0-1,0.1-1.3,0.4c-0.3,0.3-0.4,0.7-0.4,1.3v5.8c0,0.6,0.1,1,0.4,1.3s0.7,0.4,1.3,0.4h7.7c0.6,0,1-0.1,1.3-0.4
				c0.3-0.3,0.4-0.7,0.4-1.3V106.4z"/>
			<path class="st1" d="M163.9,118.2h-4.3v-10c0-0.6-0.1-1.1-0.3-1.5c-0.2-0.4-0.5-0.8-0.8-1.2c-0.3-0.3-0.7-0.6-1.2-0.7
				c-0.4-0.2-0.9-0.3-1.5-0.3h-7.5v13.6H144v-15.8c0-0.3,0.1-0.6,0.2-0.8s0.3-0.5,0.5-0.7s0.4-0.3,0.7-0.5c0.3-0.1,0.5-0.2,0.8-0.2
				h9.7c0.5,0,1.1,0.1,1.7,0.2c0.6,0.1,1.2,0.3,1.8,0.6c0.6,0.3,1.2,0.6,1.7,1s1,0.9,1.4,1.5c0.4,0.6,0.7,1.3,1,2
				c0.2,0.8,0.4,1.6,0.4,2.6V118.2z"/>
			<path class="st1" d="M185,112.2c0,0.7-0.1,1.4-0.3,2c-0.2,0.6-0.4,1.1-0.7,1.6c-0.3,0.4-0.7,0.8-1.1,1.1s-0.8,0.6-1.3,0.8
				c-0.4,0.2-0.9,0.3-1.4,0.4c-0.5,0.1-0.9,0.1-1.3,0.1h-11.7v-4.3h11.6c0.6,0,1-0.1,1.3-0.4c0.3-0.3,0.4-0.7,0.4-1.3
				c-0.1-1.2-0.6-1.7-1.7-1.7h-6.7c-1,0-1.8-0.2-2.4-0.5c-0.7-0.3-1.2-0.7-1.6-1.2c-0.4-0.5-0.7-1-0.9-1.6c-0.2-0.6-0.3-1.1-0.3-1.6
				c0-1,0.2-1.8,0.5-2.4c0.3-0.7,0.8-1.2,1.3-1.6c0.5-0.4,1.1-0.7,1.7-0.9c0.6-0.2,1.2-0.3,1.7-0.3h10.6v4.3h-10.6
				c-0.2,0-0.4,0-0.5,0.1c-0.1,0-0.2,0.1-0.3,0.2c-0.1,0.1-0.1,0.2-0.1,0.3c0,0.1,0,0.2,0,0.3c0,0.2,0,0.3,0.1,0.4
				c0.1,0.1,0.1,0.2,0.2,0.2c0.1,0,0.2,0.1,0.3,0.1s0.2,0,0.3,0h6.7c1.1,0,2,0.2,2.8,0.6c0.8,0.4,1.4,0.9,1.9,1.5
				c0.5,0.6,0.8,1.3,1,2C184.9,110.9,185,111.6,185,112.2z"/>
		</g>
	</g>
	<g>
		<path class="st3" d="M28.3,175.2l-2.3,9.9c0,0.1-0.1,0.2-0.2,0.3c-0.1,0.1-0.2,0.1-0.4,0.1h-1.6c-0.1,0-0.3,0-0.4-0.1
			c-0.1-0.1-0.2-0.2-0.2-0.3l-1.7-7.2l-1.6,7.2c0,0.1-0.1,0.2-0.2,0.3c-0.1,0.1-0.2,0.1-0.4,0.1h-1.6c-0.1,0-0.3,0-0.4-0.1
			c-0.1-0.1-0.2-0.2-0.2-0.3l-2.3-9.9c0-0.1,0-0.2,0.1-0.3c0.1-0.1,0.2-0.1,0.3-0.1h1.5c0.1,0,0.3,0,0.4,0.1
			c0.1,0.1,0.2,0.2,0.2,0.3l1.3,7.2l1.6-7.2c0-0.1,0.1-0.2,0.2-0.3c0.1-0.1,0.2-0.1,0.4-0.1h1.5c0.1,0,0.3,0,0.4,0.1
			c0.1,0.1,0.2,0.2,0.2,0.3l1.6,7.2l1.2-7.2c0-0.1,0.1-0.2,0.2-0.3c0.1-0.1,0.2-0.1,0.4-0.1H28c0.1,0,0.2,0,0.3,0.1
			C28.4,174.9,28.4,175,28.3,175.2z"/>
		<path class="st3" d="M36,181.5c0,0.1,0,0.3-0.1,0.4c-0.1,0.1-0.2,0.1-0.4,0.1h-4.4c0,0.2,0,0.5,0.1,0.7c0.1,0.2,0.2,0.4,0.3,0.6
			c0.1,0.2,0.3,0.3,0.6,0.5c0.2,0.1,0.5,0.2,0.8,0.2c0.4,0,0.8-0.1,1.1-0.2c0.3-0.1,0.6-0.2,0.7-0.3c0.1-0.1,0.2-0.1,0.4,0
			c0.1,0.1,0.2,0.1,0.3,0.3l0.4,0.9c0.1,0.1,0.1,0.2,0,0.4c-0.1,0.1-0.1,0.2-0.3,0.3c-0.1,0-0.2,0.1-0.3,0.1
			c-0.2,0.1-0.4,0.1-0.6,0.2s-0.5,0.1-0.8,0.2c-0.3,0-0.6,0.1-1,0.1c-0.8,0-1.4-0.1-1.9-0.4c-0.5-0.3-0.9-0.7-1.2-1.1
			c-0.3-0.4-0.5-0.9-0.6-1.5c-0.1-0.5-0.2-1-0.2-1.5c0-0.4,0.1-0.8,0.2-1.3c0.2-0.5,0.4-0.9,0.7-1.3c0.3-0.4,0.7-0.8,1.1-1
			c0.5-0.3,1-0.4,1.6-0.4c0.7,0,1.3,0.1,1.7,0.4c0.5,0.3,0.8,0.7,1.1,1.1c0.3,0.4,0.5,0.9,0.6,1.3c0.1,0.5,0.2,0.9,0.2,1.2V181.5z
			 M33.8,180.5c0-0.1,0-0.3-0.1-0.4c-0.1-0.2-0.2-0.4-0.3-0.5c-0.1-0.2-0.2-0.3-0.4-0.5c-0.2-0.1-0.3-0.2-0.6-0.2
			c-0.2,0-0.4,0.1-0.6,0.2c-0.2,0.1-0.3,0.3-0.4,0.4c-0.1,0.2-0.2,0.4-0.2,0.5c-0.1,0.2-0.1,0.4-0.1,0.5H33.8z"/>
		<path class="st3" d="M44.9,181.2c0,0.7-0.1,1.3-0.3,1.8c-0.2,0.6-0.5,1-0.8,1.4c-0.4,0.4-0.8,0.7-1.3,0.9
			c-0.5,0.2-1.1,0.3-1.7,0.3c-0.2,0-0.5,0-0.8,0c-0.3,0-0.6-0.1-0.8-0.1c-0.3,0-0.5-0.1-0.7-0.1c-0.2,0-0.4-0.1-0.5-0.1
			c-0.1,0-0.2-0.1-0.3-0.2c-0.1-0.1-0.1-0.2-0.1-0.3v-10.4c0-0.1,0-0.3,0.1-0.4c0.1-0.1,0.2-0.1,0.4-0.1h1.3c0.1,0,0.3,0,0.4,0.1
			c0.1,0.1,0.1,0.2,0.1,0.4v3.1c0,0,0.1-0.1,0.2-0.1c0.1,0,0.2-0.1,0.3-0.1c0.1,0,0.3-0.1,0.4-0.1c0.1,0,0.3,0,0.4,0
			c0.6,0,1.2,0.1,1.7,0.3c0.5,0.2,0.9,0.5,1.2,0.9c0.3,0.4,0.6,0.8,0.7,1.3C44.8,180.2,44.9,180.7,44.9,181.2z M42.5,181.2
			c0-0.2,0-0.5-0.1-0.7c-0.1-0.3-0.2-0.5-0.3-0.7c-0.1-0.2-0.3-0.4-0.5-0.5c-0.2-0.1-0.4-0.2-0.6-0.2c-0.2,0-0.4,0-0.7,0.1
			c-0.3,0.1-0.5,0.1-0.6,0.2v4.3c0.1,0,0.2,0.1,0.4,0.1c0.2,0,0.4,0,0.5,0c0.3,0,0.5-0.1,0.8-0.2c0.2-0.2,0.4-0.4,0.5-0.6
			c0.1-0.3,0.3-0.5,0.3-0.8C42.5,181.8,42.5,181.5,42.5,181.2z"/>
		<path class="st3" d="M59.6,179.9c0,0.8-0.1,1.6-0.3,2.3c-0.2,0.7-0.6,1.3-1,1.8c-0.4,0.5-1,0.9-1.6,1.2c-0.6,0.3-1.3,0.4-2.1,0.4
			h-3c-0.1,0-0.3,0-0.4-0.1c-0.1-0.1-0.1-0.2-0.1-0.4v-9.9c0-0.1,0-0.3,0.1-0.4c0.1-0.1,0.2-0.1,0.4-0.1h3.1c0.8,0,1.4,0.1,2.1,0.4
			c0.6,0.3,1.1,0.6,1.6,1.1c0.4,0.5,0.8,1,1,1.6C59.5,178.4,59.6,179.1,59.6,179.9z M57.2,179.9c0-0.4,0-0.8-0.1-1.2
			c-0.1-0.4-0.2-0.8-0.4-1.1c-0.2-0.3-0.5-0.5-0.8-0.7c-0.3-0.2-0.7-0.3-1.1-0.3h-1.2v7.1h1c0.4,0,0.8-0.1,1.1-0.3
			c0.3-0.2,0.6-0.4,0.8-0.8c0.2-0.3,0.4-0.7,0.5-1.2C57.1,181,57.2,180.4,57.2,179.9z"/>
		<path class="st3" d="M68.2,181.5c0,0.1,0,0.3-0.1,0.4c-0.1,0.1-0.2,0.1-0.4,0.1h-4.4c0,0.2,0,0.5,0.1,0.7c0.1,0.2,0.2,0.4,0.3,0.6
			c0.1,0.2,0.3,0.3,0.6,0.5c0.2,0.1,0.5,0.2,0.8,0.2c0.4,0,0.8-0.1,1.1-0.2c0.3-0.1,0.6-0.2,0.7-0.3c0.1-0.1,0.2-0.1,0.4,0
			c0.1,0.1,0.2,0.1,0.3,0.3l0.4,0.9c0.1,0.1,0.1,0.2,0,0.4c-0.1,0.1-0.1,0.2-0.3,0.3c-0.1,0-0.2,0.1-0.3,0.1
			c-0.2,0.1-0.4,0.1-0.6,0.2c-0.2,0.1-0.5,0.1-0.8,0.2c-0.3,0-0.6,0.1-1,0.1c-0.8,0-1.4-0.1-1.9-0.4c-0.5-0.3-0.9-0.7-1.2-1.1
			c-0.3-0.4-0.5-0.9-0.6-1.5s-0.2-1-0.2-1.5c0-0.4,0.1-0.8,0.2-1.3c0.2-0.5,0.4-0.9,0.7-1.3c0.3-0.4,0.7-0.8,1.1-1
			c0.5-0.3,1-0.4,1.6-0.4c0.7,0,1.3,0.1,1.7,0.4c0.5,0.3,0.8,0.7,1.1,1.1c0.3,0.4,0.5,0.9,0.6,1.3s0.2,0.9,0.2,1.2V181.5z M66,180.5
			c0-0.1,0-0.3-0.1-0.4c-0.1-0.2-0.2-0.4-0.3-0.5c-0.1-0.2-0.2-0.3-0.4-0.5c-0.2-0.1-0.3-0.2-0.6-0.2c-0.2,0-0.4,0.1-0.6,0.2
			c-0.2,0.1-0.3,0.3-0.4,0.4c-0.1,0.2-0.2,0.4-0.2,0.5c-0.1,0.2-0.1,0.4-0.1,0.5H66z"/>
		<path class="st3" d="M76.4,177.9l-2.3,7.2c0,0.1-0.1,0.2-0.2,0.3c-0.1,0.1-0.2,0.1-0.4,0.1h-1.7c-0.1,0-0.3,0-0.4-0.1
			c-0.1-0.1-0.2-0.2-0.2-0.3l-2.3-7.2c0-0.1,0-0.2,0.1-0.3c0.1-0.1,0.2-0.1,0.3-0.1h1.5c0.1,0,0.3,0,0.4,0.1
			c0.1,0.1,0.2,0.2,0.2,0.3l1.3,5.3l1.3-5.3c0-0.1,0.1-0.2,0.2-0.3c0.1-0.1,0.2-0.1,0.4-0.1H76c0.1,0,0.3,0,0.3,0.1
			C76.4,177.6,76.4,177.7,76.4,177.9z"/>
		<path class="st3" d="M84.4,181.5c0,0.1,0,0.3-0.1,0.4c-0.1,0.1-0.2,0.1-0.4,0.1h-4.4c0,0.2,0,0.5,0.1,0.7c0.1,0.2,0.2,0.4,0.3,0.6
			c0.1,0.2,0.3,0.3,0.6,0.5c0.2,0.1,0.5,0.2,0.8,0.2c0.4,0,0.8-0.1,1.1-0.2c0.3-0.1,0.6-0.2,0.7-0.3c0.1-0.1,0.2-0.1,0.4,0
			c0.1,0.1,0.2,0.1,0.3,0.3l0.4,0.9c0.1,0.1,0.1,0.2,0,0.4c-0.1,0.1-0.1,0.2-0.3,0.3c-0.1,0-0.2,0.1-0.3,0.1
			c-0.2,0.1-0.4,0.1-0.6,0.2c-0.2,0.1-0.5,0.1-0.8,0.2c-0.3,0-0.6,0.1-1,0.1c-0.8,0-1.4-0.1-1.9-0.4c-0.5-0.3-0.9-0.7-1.2-1.1
			c-0.3-0.4-0.5-0.9-0.6-1.5c-0.1-0.5-0.2-1-0.2-1.5c0-0.4,0.1-0.8,0.2-1.3c0.2-0.5,0.4-0.9,0.7-1.3c0.3-0.4,0.7-0.8,1.1-1
			c0.5-0.3,1-0.4,1.6-0.4c0.7,0,1.3,0.1,1.7,0.4c0.5,0.3,0.8,0.7,1.1,1.1c0.3,0.4,0.5,0.9,0.6,1.3c0.1,0.5,0.2,0.9,0.2,1.2V181.5z
			 M82.2,180.5c0-0.1,0-0.3-0.1-0.4c-0.1-0.2-0.2-0.4-0.3-0.5c-0.1-0.2-0.2-0.3-0.4-0.5c-0.2-0.1-0.3-0.2-0.6-0.2
			c-0.2,0-0.4,0.1-0.6,0.2c-0.2,0.1-0.3,0.3-0.4,0.4c-0.1,0.2-0.2,0.4-0.2,0.5c-0.1,0.2-0.1,0.4-0.1,0.5H82.2z"/>
		<path class="st3" d="M89.8,184.9c0.1,0.1,0.1,0.2,0,0.4c-0.1,0.1-0.1,0.2-0.3,0.3c-0.1,0-0.2,0.1-0.4,0.1
			c-0.2,0.1-0.5,0.1-0.7,0.1c-0.5,0-0.9-0.1-1.2-0.2c-0.3-0.2-0.6-0.4-0.7-0.6c-0.2-0.2-0.3-0.5-0.4-0.8c-0.1-0.3-0.1-0.6-0.1-0.9
			v-8.7c0-0.1,0-0.3,0.1-0.4c0.1-0.1,0.2-0.1,0.4-0.1h1.3c0.1,0,0.3,0,0.4,0.1c0.1,0.1,0.1,0.2,0.1,0.4v8.6c0,0.2,0,0.4,0.1,0.5
			s0.1,0.2,0.3,0.2c0.1,0,0.1,0,0.2,0c0.1-0.1,0.2-0.1,0.4,0c0.1,0.1,0.2,0.1,0.3,0.3L89.8,184.9z"/>
		<path class="st3" d="M98,181.2c0,0.4-0.1,0.8-0.2,1.3s-0.3,1-0.6,1.5c-0.3,0.5-0.7,0.9-1.2,1.2c-0.5,0.3-1.1,0.5-1.9,0.5
			c-0.8,0-1.4-0.2-1.9-0.5c-0.5-0.3-0.9-0.7-1.2-1.2c-0.3-0.5-0.5-1-0.6-1.5c-0.1-0.5-0.2-1-0.2-1.4c0-0.4,0.1-0.9,0.2-1.3
			c0.2-0.5,0.4-0.9,0.7-1.3c0.3-0.4,0.7-0.7,1.2-1c0.5-0.3,1-0.4,1.7-0.4c0.7,0,1.3,0.1,1.8,0.4c0.5,0.3,0.9,0.6,1.2,1
			c0.3,0.4,0.5,0.9,0.7,1.3C98,180.4,98,180.9,98,181.2z M95.7,181.2c0-0.2,0-0.4-0.1-0.7c0-0.2-0.1-0.5-0.2-0.7s-0.3-0.4-0.5-0.6
			c-0.2-0.2-0.4-0.2-0.7-0.2c-0.3,0-0.5,0.1-0.7,0.2c-0.2,0.1-0.3,0.3-0.4,0.5c-0.1,0.2-0.2,0.5-0.2,0.7c0,0.3-0.1,0.5-0.1,0.7
			c0,0.2,0,0.5,0.1,0.8c0,0.3,0.1,0.6,0.2,0.9c0.1,0.3,0.2,0.5,0.4,0.7c0.2,0.2,0.4,0.3,0.7,0.3c0.3,0,0.6-0.1,0.7-0.3
			c0.2-0.2,0.3-0.4,0.4-0.7c0.1-0.3,0.2-0.5,0.2-0.8C95.6,181.8,95.7,181.5,95.7,181.2z"/>
		<path class="st3" d="M107,181.2c0,0.6-0.1,1.2-0.2,1.8c-0.2,0.5-0.4,1-0.7,1.4c-0.3,0.4-0.7,0.7-1.2,1c-0.5,0.2-1,0.4-1.6,0.4
			c-0.1,0-0.2,0-0.4,0c-0.1,0-0.3-0.1-0.4-0.1c-0.1,0-0.2-0.1-0.3-0.1c-0.1,0-0.2-0.1-0.2-0.1v3.3c0,0.1,0,0.3-0.1,0.4
			c-0.1,0.1-0.2,0.1-0.4,0.1h-1.3c-0.1,0-0.3,0-0.4-0.1c-0.1-0.1-0.1-0.2-0.1-0.4V178c0-0.1,0-0.2,0.1-0.3c0.1-0.1,0.2-0.1,0.3-0.2
			c0.1,0,0.2-0.1,0.4-0.1c0.2,0,0.5-0.1,0.7-0.1c0.3,0,0.6-0.1,0.8-0.1c0.3,0,0.6,0,0.8,0c0.6,0,1.2,0.1,1.7,0.4
			c0.5,0.2,0.9,0.6,1.3,0.9c0.4,0.4,0.6,0.8,0.8,1.3C106.9,180.3,107,180.8,107,181.2z M104.7,181.2c0-0.3,0-0.5-0.1-0.8
			c-0.1-0.3-0.2-0.5-0.3-0.7c-0.1-0.2-0.3-0.4-0.5-0.5c-0.2-0.1-0.5-0.2-0.8-0.2c-0.1,0-0.3,0-0.5,0c-0.2,0-0.4,0.1-0.4,0.1v4.3
			c0.1,0.1,0.3,0.1,0.6,0.2c0.3,0.1,0.5,0.1,0.7,0.1c0.2,0,0.4-0.1,0.6-0.2c0.2-0.1,0.3-0.3,0.5-0.6c0.1-0.2,0.2-0.5,0.3-0.8
			C104.6,181.9,104.7,181.6,104.7,181.2z"/>
		<path class="st3" d="M119.9,185.1c0,0.1,0,0.3-0.1,0.4c-0.1,0.1-0.2,0.1-0.4,0.1h-1.3c-0.1,0-0.3,0-0.4-0.1
			c-0.1-0.1-0.1-0.2-0.1-0.4v-4.8c0-0.1,0-0.3-0.1-0.4c0-0.2-0.1-0.3-0.2-0.4c-0.1-0.1-0.2-0.2-0.4-0.3c-0.2-0.1-0.3-0.1-0.6-0.1
			c-0.1,0-0.1,0-0.3,0c-0.1,0-0.2,0-0.3,0c-0.1,0-0.2,0-0.3,0c-0.1,0-0.2,0-0.2,0c0.1,0.2,0.1,0.3,0.1,0.5c0,0.2,0,0.3,0,0.5v5
			c0,0.1,0,0.3-0.1,0.4c-0.1,0.1-0.2,0.1-0.4,0.1h-1.3c-0.1,0-0.3,0-0.4-0.1c-0.1-0.1-0.1-0.2-0.1-0.4v-4.8c0-0.1,0-0.3-0.1-0.4
			c0-0.2-0.1-0.3-0.2-0.4c-0.1-0.1-0.2-0.2-0.4-0.3c-0.2-0.1-0.3-0.1-0.6-0.1c-0.1,0-0.3,0-0.5,0c-0.2,0-0.4,0.1-0.4,0.1v5.9
			c0,0.1,0,0.3-0.1,0.4c-0.1,0.1-0.2,0.1-0.4,0.1h-1.3c-0.1,0-0.3,0-0.4-0.1c-0.1-0.1-0.1-0.2-0.1-0.4v-7c0-0.1,0-0.2,0.1-0.3
			c0.1-0.1,0.2-0.1,0.3-0.2c0.1,0,0.3-0.1,0.5-0.1c0.2,0,0.5-0.1,0.7-0.1c0.3,0,0.5-0.1,0.8-0.1c0.3,0,0.5,0,0.8,0
			c0.5,0,0.8,0,1.2,0.1c0.3,0.1,0.6,0.2,0.7,0.3c0.1,0,0.3-0.1,0.5-0.1c0.2,0,0.4-0.1,0.7-0.1c0.3,0,0.5-0.1,0.8-0.1
			c0.3,0,0.5,0,0.7,0c0.6,0,1.1,0.1,1.5,0.2c0.4,0.2,0.8,0.4,1.1,0.6s0.5,0.6,0.7,0.9c0.2,0.4,0.2,0.7,0.2,1.2V185.1z"/>
		<path class="st3" d="M128.7,181.5c0,0.1,0,0.3-0.1,0.4c-0.1,0.1-0.2,0.1-0.4,0.1h-4.4c0,0.2,0,0.5,0.1,0.7
			c0.1,0.2,0.2,0.4,0.3,0.6c0.1,0.2,0.3,0.3,0.6,0.5c0.2,0.1,0.5,0.2,0.8,0.2c0.4,0,0.8-0.1,1.1-0.2c0.3-0.1,0.6-0.2,0.7-0.3
			c0.1-0.1,0.2-0.1,0.4,0c0.1,0.1,0.2,0.1,0.3,0.3l0.4,0.9c0.1,0.1,0.1,0.2,0,0.4c-0.1,0.1-0.1,0.2-0.3,0.3c-0.1,0-0.2,0.1-0.3,0.1
			c-0.2,0.1-0.4,0.1-0.6,0.2c-0.2,0.1-0.5,0.1-0.8,0.2c-0.3,0-0.6,0.1-1,0.1c-0.8,0-1.4-0.1-1.9-0.4c-0.5-0.3-0.9-0.7-1.2-1.1
			c-0.3-0.4-0.5-0.9-0.6-1.5c-0.1-0.5-0.2-1-0.2-1.5c0-0.4,0.1-0.8,0.2-1.3c0.2-0.5,0.4-0.9,0.7-1.3c0.3-0.4,0.7-0.8,1.1-1
			c0.5-0.3,1-0.4,1.6-0.4c0.7,0,1.3,0.1,1.7,0.4c0.5,0.3,0.8,0.7,1.1,1.1c0.3,0.4,0.5,0.9,0.6,1.3s0.2,0.9,0.2,1.2V181.5z
			 M126.5,180.5c0-0.1,0-0.3-0.1-0.4c-0.1-0.2-0.2-0.4-0.3-0.5c-0.1-0.2-0.2-0.3-0.4-0.5c-0.2-0.1-0.3-0.2-0.6-0.2
			c-0.2,0-0.4,0.1-0.6,0.2c-0.2,0.1-0.3,0.3-0.4,0.4c-0.1,0.2-0.2,0.4-0.2,0.5c-0.1,0.2-0.1,0.4-0.1,0.5H126.5z"/>
		<path class="st3" d="M137.2,185.1c0,0.1,0,0.3-0.1,0.4c-0.1,0.1-0.2,0.1-0.4,0.1h-1.3c-0.1,0-0.3,0-0.4-0.1
			c-0.1-0.1-0.1-0.2-0.1-0.4v-4.8c0-0.3-0.1-0.6-0.4-0.8c-0.2-0.3-0.6-0.4-1-0.4c-0.1,0-0.3,0-0.5,0c-0.2,0-0.4,0.1-0.4,0.1v5.9
			c0,0.1,0,0.3-0.1,0.4c-0.1,0.1-0.2,0.1-0.4,0.1h-1.3c-0.1,0-0.3,0-0.4-0.1c-0.1-0.1-0.1-0.2-0.1-0.4v-7c0-0.1,0-0.2,0.1-0.3
			c0.1-0.1,0.2-0.1,0.3-0.2c0.1,0,0.3-0.1,0.5-0.1c0.2,0,0.5-0.1,0.7-0.1c0.3,0,0.5-0.1,0.8-0.1c0.3,0,0.5,0,0.8,0
			c0.6,0,1.1,0.1,1.6,0.2c0.5,0.1,0.9,0.4,1.2,0.6c0.3,0.3,0.6,0.6,0.7,0.9c0.2,0.4,0.3,0.7,0.3,1.2V185.1z"/>
		<path class="st3" d="M143.9,184.9c0.1,0.1,0.1,0.2,0,0.4c-0.1,0.1-0.1,0.2-0.3,0.3c-0.1,0-0.3,0.1-0.6,0.1
			c-0.3,0.1-0.5,0.1-0.8,0.1c-0.5,0-0.8-0.1-1.2-0.2c-0.3-0.1-0.6-0.3-0.8-0.5c-0.2-0.2-0.3-0.5-0.4-0.7s-0.1-0.6-0.1-0.9v-4.2h-0.9
			c-0.1,0-0.3,0-0.4-0.1c-0.1-0.1-0.1-0.2-0.1-0.4v-0.9c0-0.1,0-0.3,0.1-0.4c0.1-0.1,0.2-0.1,0.4-0.1h0.9v-1.7c0-0.1,0-0.3,0.1-0.4
			c0.1-0.1,0.2-0.1,0.4-0.1h1.3c0.1,0,0.3,0,0.4,0.1c0.1,0.1,0.1,0.2,0.1,0.4v1.7h1.3c0.1,0,0.3,0,0.4,0.1c0.1,0.1,0.1,0.2,0.1,0.4
			v0.9c0,0.1,0,0.3-0.1,0.4c-0.1,0.1-0.2,0.1-0.4,0.1h-1.3v4c0,0,0,0.1,0,0.2s0,0.1,0.1,0.2c0,0.1,0.1,0.1,0.1,0.2s0.1,0.1,0.3,0.1
			c0.1,0,0.1,0,0.2,0c0.1,0,0.1,0,0.2-0.1c0.1-0.1,0.2-0.1,0.4,0c0.1,0.1,0.2,0.1,0.3,0.3L143.9,184.9z"/>
		<path class="st3" d="M156.8,176.2c0,0.1,0,0.3-0.1,0.4c-0.1,0.1-0.2,0.1-0.4,0.1h-2.2v8.4c0,0.1,0,0.3-0.1,0.4
			c-0.1,0.1-0.2,0.1-0.4,0.1h-1.4c-0.1,0-0.3,0-0.4-0.1c-0.1-0.1-0.1-0.2-0.1-0.4v-8.4h-2.2c-0.1,0-0.3,0-0.4-0.1
			c-0.1-0.1-0.1-0.2-0.1-0.4v-1c0-0.1,0-0.3,0.1-0.4c0.1-0.1,0.2-0.1,0.4-0.1h6.8c0.1,0,0.3,0,0.4,0.1c0.1,0.1,0.1,0.2,0.1,0.4
			V176.2z"/>
		<path class="st3" d="M163.8,181.5c0,0.1,0,0.3-0.1,0.4c-0.1,0.1-0.2,0.1-0.4,0.1h-4.4c0,0.2,0,0.5,0.1,0.7
			c0.1,0.2,0.2,0.4,0.3,0.6c0.1,0.2,0.3,0.3,0.6,0.5c0.2,0.1,0.5,0.2,0.8,0.2c0.4,0,0.8-0.1,1.1-0.2c0.3-0.1,0.6-0.2,0.7-0.3
			c0.1-0.1,0.2-0.1,0.4,0c0.1,0.1,0.2,0.1,0.3,0.3l0.4,0.9c0.1,0.1,0.1,0.2,0,0.4c-0.1,0.1-0.1,0.2-0.3,0.3c-0.1,0-0.2,0.1-0.3,0.1
			s-0.4,0.1-0.6,0.2c-0.2,0.1-0.5,0.1-0.8,0.2c-0.3,0-0.6,0.1-1,0.1c-0.8,0-1.4-0.1-1.9-0.4c-0.5-0.3-0.9-0.7-1.2-1.1
			c-0.3-0.4-0.5-0.9-0.6-1.5c-0.1-0.5-0.2-1-0.2-1.5c0-0.4,0.1-0.8,0.2-1.3c0.2-0.5,0.4-0.9,0.7-1.3c0.3-0.4,0.7-0.8,1.1-1
			c0.5-0.3,1-0.4,1.6-0.4c0.7,0,1.3,0.1,1.7,0.4c0.5,0.3,0.8,0.7,1.1,1.1c0.3,0.4,0.5,0.9,0.6,1.3s0.2,0.9,0.2,1.2V181.5z
			 M161.6,180.5c0-0.1,0-0.3-0.1-0.4c-0.1-0.2-0.2-0.4-0.3-0.5c-0.1-0.2-0.2-0.3-0.4-0.5c-0.2-0.1-0.3-0.2-0.6-0.2
			c-0.2,0-0.4,0.1-0.6,0.2c-0.2,0.1-0.3,0.3-0.4,0.4c-0.1,0.2-0.2,0.4-0.2,0.5c-0.1,0.2-0.1,0.4-0.1,0.5H161.6z"/>
		<path class="st3" d="M171.7,184.9c0,0.1,0,0.2-0.1,0.3c-0.1,0.1-0.2,0.1-0.3,0.2c-0.1,0-0.2,0.1-0.5,0.1c-0.2,0-0.5,0.1-0.7,0.1
			c-0.3,0-0.6,0.1-0.8,0.1c-0.3,0-0.6,0-0.8,0c-1.2,0-2.1-0.2-2.7-0.7c-0.6-0.4-0.9-1-0.9-1.6c0-0.4,0.1-0.7,0.3-1.1
			c0.2-0.3,0.5-0.6,0.8-0.9c0.3-0.2,0.7-0.5,1.1-0.6c0.4-0.2,0.8-0.3,1.2-0.4l1.3-0.3v-0.1c0-0.3-0.1-0.6-0.3-0.8
			c-0.2-0.3-0.6-0.4-1-0.4c-0.2,0-0.3,0-0.5,0.1c-0.2,0-0.3,0.1-0.5,0.2c-0.2,0.1-0.3,0.1-0.4,0.2c-0.1,0.1-0.2,0.1-0.3,0.1
			c-0.1,0.1-0.2,0.1-0.4,0c-0.1,0-0.2-0.1-0.3-0.2l-0.3-0.7c-0.1-0.1-0.1-0.2,0-0.4c0-0.1,0.1-0.2,0.2-0.3c0.1,0,0.2-0.1,0.4-0.2
			c0.2-0.1,0.4-0.2,0.7-0.2c0.3-0.1,0.5-0.1,0.9-0.2c0.3-0.1,0.7-0.1,1-0.1c0.5,0,0.9,0.1,1.3,0.2c0.4,0.1,0.7,0.3,1,0.6
			c0.3,0.2,0.5,0.5,0.6,0.9c0.1,0.3,0.2,0.7,0.2,1.1V184.9z M169.5,183.9v-2.1l-0.9,0.2c-0.5,0.1-0.9,0.3-1.1,0.5
			c-0.3,0.2-0.4,0.5-0.4,0.7c0,0.3,0.1,0.4,0.4,0.6c0.3,0.1,0.6,0.2,1,0.2c0.1,0,0.1,0,0.3,0c0.1,0,0.2,0,0.3,0s0.2,0,0.3,0
			C169.3,183.9,169.4,183.9,169.5,183.9z"/>
		<path class="st3" d="M185,185.1c0,0.1,0,0.3-0.1,0.4c-0.1,0.1-0.2,0.1-0.4,0.1h-1.3c-0.1,0-0.3,0-0.4-0.1
			c-0.1-0.1-0.1-0.2-0.1-0.4v-4.8c0-0.1,0-0.3-0.1-0.4c0-0.2-0.1-0.3-0.2-0.4c-0.1-0.1-0.2-0.2-0.4-0.3c-0.2-0.1-0.3-0.1-0.6-0.1
			c-0.1,0-0.1,0-0.3,0c-0.1,0-0.2,0-0.3,0c-0.1,0-0.2,0-0.3,0c-0.1,0-0.2,0-0.2,0c0.1,0.2,0.1,0.3,0.1,0.5c0,0.2,0,0.3,0,0.5v5
			c0,0.1,0,0.3-0.1,0.4c-0.1,0.1-0.2,0.1-0.4,0.1h-1.3c-0.1,0-0.3,0-0.4-0.1c-0.1-0.1-0.1-0.2-0.1-0.4v-4.8c0-0.1,0-0.3-0.1-0.4
			c0-0.2-0.1-0.3-0.2-0.4s-0.2-0.2-0.4-0.3c-0.2-0.1-0.3-0.1-0.6-0.1c-0.1,0-0.3,0-0.5,0c-0.2,0-0.4,0.1-0.4,0.1v5.9
			c0,0.1,0,0.3-0.1,0.4c-0.1,0.1-0.2,0.1-0.4,0.1h-1.3c-0.1,0-0.3,0-0.4-0.1c-0.1-0.1-0.1-0.2-0.1-0.4v-7c0-0.1,0-0.2,0.1-0.3
			c0.1-0.1,0.2-0.1,0.3-0.2c0.1,0,0.3-0.1,0.5-0.1c0.2,0,0.5-0.1,0.7-0.1c0.3,0,0.5-0.1,0.8-0.1c0.3,0,0.5,0,0.8,0
			c0.5,0,0.8,0,1.2,0.1c0.3,0.1,0.6,0.2,0.7,0.3c0.1,0,0.3-0.1,0.5-0.1c0.2,0,0.4-0.1,0.7-0.1c0.3,0,0.5-0.1,0.8-0.1
			c0.3,0,0.5,0,0.7,0c0.6,0,1.1,0.1,1.5,0.2s0.8,0.4,1.1,0.6c0.3,0.3,0.5,0.6,0.7,0.9c0.2,0.4,0.2,0.7,0.2,1.2V185.1z"/>
	</g>
</g>
</svg>
